<svg width="28" height="28" viewBox="0 0 28 28" fill="none" xmlns="http://www.w3.org/2000/svg">
<path d="M0 14C0 6.26801 6.26801 0 14 0C21.732 0 28 6.26801 28 14C28 21.732 21.732 28 14 28C6.26801 28 0 21.732 0 14Z" fill="#90E3FF"/>
<path fill-rule="evenodd" clip-rule="evenodd" d="M20.7446 7.25548C20.8261 7.33676 20.8908 7.43331 20.9349 7.53962C20.979 7.64592 21.0017 7.75988 21.0017 7.87498C21.0017 7.99007 20.979 8.10403 20.9349 8.21034C20.8908 8.31664 20.8261 8.4132 20.7446 8.49448L8.49463 20.7445C8.33033 20.9088 8.10749 21.0011 7.87513 21.0011C7.64277 21.0011 7.41993 20.9088 7.25563 20.7445C7.09133 20.5802 6.99902 20.3573 6.99902 20.125C6.99902 19.8926 7.09133 19.6698 7.25563 19.5055L19.5056 7.25548C19.5869 7.17399 19.6835 7.10934 19.7898 7.06523C19.8961 7.02112 20.01 6.99841 20.1251 6.99841C20.2402 6.99841 20.3542 7.02112 20.4605 7.06523C20.5668 7.10934 20.6633 7.17399 20.7446 7.25548Z" fill="#031161"/>
<path fill-rule="evenodd" clip-rule="evenodd" d="M7.25609 7.25548C7.1746 7.33676 7.10995 7.43331 7.06584 7.53962C7.02173 7.64592 6.99902 7.75988 6.99902 7.87498C6.99902 7.99007 7.02173 8.10403 7.06584 8.21034C7.10995 8.31664 7.1746 8.4132 7.25609 8.49448L19.5061 20.7445C19.6704 20.9088 19.8932 21.0011 20.1256 21.0011C20.3579 21.0011 20.5808 20.9088 20.7451 20.7445C20.9094 20.5802 21.0017 20.3573 21.0017 20.125C21.0017 19.8926 20.9094 19.6698 20.7451 19.5055L8.49509 7.25548C8.41381 7.17399 8.31725 7.10934 8.21095 7.06523C8.10464 7.02112 7.99068 6.99841 7.87559 6.99841C7.76049 6.99841 7.64653 7.02112 7.54023 7.06523C7.43392 7.10934 7.33737 7.17399 7.25609 7.25548Z" fill="#031161"/>
</svg>
