<svg width="33" height="32" viewBox="0 0 33 32" fill="none" xmlns="http://www.w3.org/2000/svg">
<path fill-rule="evenodd" clip-rule="evenodd" d="M24.2078 8.29183C24.3009 8.38473 24.3748 8.49508 24.4252 8.61657C24.4756 8.73806 24.5016 8.8683 24.5016 8.99983C24.5016 9.13137 24.4756 9.26161 24.4252 9.3831C24.3748 9.50459 24.3009 9.61494 24.2078 9.70783L10.2078 23.7078C10.02 23.8956 9.76535 24.0011 9.4998 24.0011C9.23425 24.0011 8.97957 23.8956 8.7918 23.7078C8.60402 23.5201 8.49854 23.2654 8.49854 22.9998C8.49854 22.7343 8.60402 22.4796 8.7918 22.2918L22.7918 8.29183C22.8847 8.19871 22.995 8.12482 23.1165 8.07441C23.238 8.024 23.3683 7.99805 23.4998 7.99805C23.6313 7.99805 23.7616 8.024 23.8831 8.07441C24.0046 8.12482 24.1149 8.19871 24.2078 8.29183Z" fill="#11EFFF"/>
<path fill-rule="evenodd" clip-rule="evenodd" d="M8.79183 8.29183C8.69871 8.38473 8.62482 8.49508 8.57441 8.61657C8.524 8.73806 8.49805 8.8683 8.49805 8.99983C8.49805 9.13137 8.524 9.26161 8.57441 9.3831C8.62482 9.50459 8.69871 9.61494 8.79183 9.70783L22.7918 23.7078C22.9796 23.8956 23.2343 24.0011 23.4998 24.0011C23.7654 24.0011 24.0201 23.8956 24.2078 23.7078C24.3956 23.5201 24.5011 23.2654 24.5011 22.9998C24.5011 22.7343 24.3956 22.4796 24.2078 22.2918L10.2078 8.29183C10.1149 8.19871 10.0046 8.12482 9.8831 8.07441C9.76161 8.024 9.63137 7.99805 9.49983 7.99805C9.3683 7.99805 9.23806 8.024 9.11657 8.07441C8.99508 8.12482 8.88473 8.19871 8.79183 8.29183Z" fill="#11EFFF"/>
</svg>
