<svg width="16" height="16" viewBox="0 0 16 16" fill="none" xmlns="http://www.w3.org/2000/svg">
<path d="M3 4.16667C3 3.52267 3.52267 3 4.16667 3H6.83333C6.96594 3 7.09312 2.94732 7.18689 2.85355C7.28065 2.75979 7.33333 2.63261 7.33333 2.5C7.33333 2.36739 7.28065 2.24021 7.18689 2.14645C7.09312 2.05268 6.96594 2 6.83333 2H4.16667C3.59203 2 3.04093 2.22827 2.6346 2.6346C2.22827 3.04093 2 3.59203 2 4.16667V11.8333C2 12.408 2.22827 12.9591 2.6346 13.3654C3.04093 13.7717 3.59203 14 4.16667 14H11.8333C12.408 14 12.9591 13.7717 13.3654 13.3654C13.7717 12.9591 14 12.408 14 11.8333V9.16667C14 9.03406 13.9473 8.90688 13.8536 8.81311C13.7598 8.71935 13.6326 8.66667 13.5 8.66667C13.3674 8.66667 13.2402 8.71935 13.1464 8.81311C13.0527 8.90688 13 9.03406 13 9.16667V11.8333C13 12.1428 12.8771 12.4395 12.6583 12.6583C12.4395 12.8771 12.1428 13 11.8333 13H8V9.83333C8 9.59258 7.95258 9.35418 7.86045 9.13175C7.76831 8.90932 7.63327 8.70721 7.46303 8.53697C7.29279 8.36673 7.09068 8.23169 6.86825 8.13955C6.64582 8.04742 6.40742 8 6.16667 8H3V4.16667ZM3 9H6.16667C6.62667 9 7 9.37333 7 9.83333V13H4.16667C3.85725 13 3.5605 12.8771 3.34171 12.6583C3.12292 12.4395 3 12.1428 3 11.8333V9ZM8.66667 2.5C8.66667 2.36739 8.71935 2.24021 8.81311 2.14645C8.90688 2.05268 9.03406 2 9.16667 2H13.5C13.6326 2 13.7598 2.05268 13.8536 2.14645C13.9473 2.24021 14 2.36739 14 2.5V6.83333C14 6.96594 13.9473 7.09312 13.8536 7.18689C13.7598 7.28065 13.6326 7.33333 13.5 7.33333C13.3674 7.33333 13.2402 7.28065 13.1464 7.18689C13.0527 7.09312 13 6.96594 13 6.83333V3.70667L9.52 7.18667C9.42522 7.27499 9.29985 7.32307 9.17032 7.32078C9.04078 7.3185 8.91719 7.26602 8.82559 7.17441C8.73398 7.08281 8.6815 6.95922 8.67922 6.82968C8.67693 6.70015 8.72501 6.57478 8.81333 6.48L12.2933 3H9.16667C9.03406 3 8.90688 2.94732 8.81311 2.85355C8.71935 2.75979 8.66667 2.63261 8.66667 2.5Z" fill="#11EFFF"/>
</svg>
