<svg width="20" height="20" viewBox="0 0 20 20" fill="none" xmlns="http://www.w3.org/2000/svg">
<path d="M11.1751 9.99999L14.7584 6.42499C14.9153 6.26807 15.0035 6.05524 15.0035 5.83333C15.0035 5.61141 14.9153 5.39858 14.7584 5.24166C14.6015 5.08474 14.3887 4.99658 14.1667 4.99658C13.9448 4.99658 13.732 5.08474 13.5751 5.24166L10.0001 8.82499L6.42507 5.24166C6.26815 5.08474 6.05532 4.99658 5.8334 4.99658C5.61149 4.99658 5.39866 5.08474 5.24174 5.24166C5.08482 5.39858 4.99666 5.61141 4.99666 5.83333C4.99666 6.05524 5.08482 6.26807 5.24174 6.42499L8.82507 9.99999L5.24174 13.575C5.16363 13.6525 5.10164 13.7446 5.05933 13.8462C5.01702 13.9477 4.99524 14.0566 4.99524 14.1667C4.99524 14.2767 5.01702 14.3856 5.05933 14.4871C5.10164 14.5887 5.16363 14.6809 5.24174 14.7583C5.31921 14.8364 5.41137 14.8984 5.51292 14.9407C5.61447 14.983 5.72339 15.0048 5.8334 15.0048C5.94341 15.0048 6.05234 14.983 6.15389 14.9407C6.25543 14.8984 6.3476 14.8364 6.42507 14.7583L10.0001 11.175L13.5751 14.7583C13.6525 14.8364 13.7447 14.8984 13.8463 14.9407C13.9478 14.983 14.0567 15.0048 14.1667 15.0048C14.2767 15.0048 14.3857 14.983 14.4872 14.9407C14.5888 14.8984 14.6809 14.8364 14.7584 14.7583C14.8365 14.6809 14.8985 14.5887 14.9408 14.4871C14.9831 14.3856 15.0049 14.2767 15.0049 14.1667C15.0049 14.0566 14.9831 13.9477 14.9408 13.8462C14.8985 13.7446 14.8365 13.6525 14.7584 13.575L11.1751 9.99999Z" fill="white"/>
</svg>
