<svg width="57" height="56" viewBox="0 0 57 56" fill="none" xmlns="http://www.w3.org/2000/svg">
<path d="M28.5002 3.11108C23.5777 3.11108 18.7657 4.57079 14.6727 7.30562C10.5797 10.0404 7.38967 13.9276 5.50589 18.4754C3.62211 23.0233 3.12923 28.0276 4.08957 32.8556C5.04992 37.6835 7.42035 42.1183 10.9011 45.5991C14.3819 49.0798 18.8167 51.4503 23.6446 52.4106C28.4726 53.371 33.4769 52.8781 38.0248 50.9943C42.5726 49.1105 46.4598 45.9205 49.1946 41.8275C51.9294 37.7345 53.3891 32.9225 53.3891 28C53.3891 21.399 50.7669 15.0684 46.0993 10.4009C41.4318 5.7333 35.1012 3.11108 28.5002 3.11108ZM28.5002 49.7777C24.193 49.7777 19.9825 48.5005 16.4011 46.1075C12.8198 43.7146 10.0285 40.3133 8.38019 36.334C6.73188 32.3546 6.3006 27.9758 7.1409 23.7513C7.9812 19.5269 10.0553 15.6464 13.101 12.6008C16.1467 9.55508 20.0271 7.48095 24.2516 6.64065C28.4761 5.80035 32.8549 6.23162 36.8342 7.87993C40.8136 9.52824 44.2148 12.3195 46.6078 15.9009C49.0008 19.4822 50.278 23.6927 50.278 28C50.278 33.7758 47.9836 39.3151 43.8994 43.3992C39.8153 47.4833 34.2761 49.7777 28.5002 49.7777Z" fill="#90E3FF"/>
<path fill-rule="evenodd" clip-rule="evenodd" d="M37.2426 19.6686C37.3432 19.769 37.4231 19.8883 37.4776 20.0196C37.5321 20.1509 37.5601 20.2917 37.5601 20.4339C37.5601 20.5761 37.5321 20.7168 37.4776 20.8482C37.4231 20.9795 37.3432 21.0987 37.2426 21.1992L22.1102 36.3315C21.9072 36.5345 21.632 36.6485 21.3449 36.6485C21.0579 36.6485 20.7826 36.5345 20.5797 36.3315C20.3767 36.1285 20.2627 35.8533 20.2627 35.5662C20.2627 35.2792 20.3767 35.0039 20.5797 34.801L35.712 19.6686C35.8124 19.568 35.9317 19.4881 36.063 19.4336C36.1943 19.3791 36.3351 19.3511 36.4773 19.3511C36.6195 19.3511 36.7602 19.3791 36.8916 19.4336C37.0229 19.4881 37.1422 19.568 37.2426 19.6686Z" fill="#90E3FF"/>
<path fill-rule="evenodd" clip-rule="evenodd" d="M20.5802 19.6686C20.4796 19.769 20.3997 19.8883 20.3452 20.0196C20.2907 20.1509 20.2627 20.2917 20.2627 20.4339C20.2627 20.5761 20.2907 20.7168 20.3452 20.8482C20.3997 20.9795 20.4796 21.0987 20.5802 21.1992L35.7126 36.3315C35.9156 36.5345 36.1908 36.6485 36.4779 36.6485C36.7649 36.6485 37.0402 36.5345 37.2431 36.3315C37.4461 36.1285 37.5601 35.8533 37.5601 35.5662C37.5601 35.2792 37.4461 35.0039 37.2431 34.801L22.1108 19.6686C22.0104 19.568 21.8911 19.4881 21.7598 19.4336C21.6285 19.3791 21.4877 19.3511 21.3455 19.3511C21.2033 19.3511 21.0626 19.3791 20.9312 19.4336C20.7999 19.4881 20.6806 19.568 20.5802 19.6686Z" fill="#90E3FF"/>
</svg>
