<svg width="56" height="56" viewBox="0 0 56 56" fill="none" xmlns="http://www.w3.org/2000/svg">
<path d="M28.0002 3.11108C23.0777 3.11108 18.2657 4.57079 14.1727 7.30562C10.0797 10.0404 6.88967 13.9276 5.00589 18.4754C3.12211 23.0233 2.62923 28.0276 3.58957 32.8556C4.54992 37.6835 6.92035 42.1183 10.4011 45.5991C13.8819 49.0798 18.3167 51.4503 23.1446 52.4106C27.9726 53.371 32.9769 52.8781 37.5248 50.9943C42.0726 49.1105 45.9598 45.9205 48.6946 41.8275C51.4294 37.7345 52.8891 32.9225 52.8891 28C52.8891 21.399 50.2669 15.0684 45.5993 10.4009C40.9318 5.7333 34.6012 3.11108 28.0002 3.11108ZM28.0002 49.7777C23.693 49.7777 19.4825 48.5005 15.9011 46.1075C12.3198 43.7146 9.52849 40.3133 7.88019 36.334C6.23188 32.3546 5.8006 27.9758 6.6409 23.7513C7.4812 19.5269 9.55534 15.6464 12.601 12.6008C15.6467 9.55508 19.5271 7.48095 23.7516 6.64065C27.9761 5.80035 32.3549 6.23162 36.3342 7.87993C40.3136 9.52824 43.7148 12.3195 46.1078 15.9009C48.5008 19.4822 49.778 23.6927 49.778 28C49.778 33.7758 47.4836 39.3151 43.3994 43.3992C39.3153 47.4833 33.7761 49.7777 28.0002 49.7777Z" fill="#90E3FF"/>
<path d="M43.5552 18.8222C43.2638 18.5325 42.8695 18.3699 42.4586 18.3699C42.0476 18.3699 41.6534 18.5325 41.3619 18.8222L24.0952 36.0111L14.7619 26.6778C14.4772 26.3704 14.0821 26.1887 13.6635 26.1727C13.2449 26.1566 12.837 26.3075 12.5297 26.5922C12.2223 26.8769 12.0406 27.272 12.0246 27.6906C12.0086 28.1092 12.1595 28.5171 12.4441 28.8244L24.0952 40.4444L43.5552 21.0311C43.701 20.8865 43.8168 20.7145 43.8957 20.5249C43.9747 20.3353 44.0154 20.132 44.0154 19.9267C44.0154 19.7213 43.9747 19.518 43.8957 19.3284C43.8168 19.1389 43.701 18.9668 43.5552 18.8222Z" fill="#90E3FF"/>
</svg>
