<svg width="16" height="16" viewBox="0 0 16 16" fill="none" xmlns="http://www.w3.org/2000/svg">
<path d="M4.80005 3.2001C4.80005 2.77575 4.96862 2.36878 5.26868 2.06873C5.56874 1.76867 5.9757 1.6001 6.40005 1.6001H9.26885C9.587 1.60038 9.89202 1.72699 10.1168 1.9521L13.2488 5.0833C13.4737 5.30826 13.6 5.61326 13.6 5.9313V11.2001C13.6 11.6244 13.4315 12.0314 13.1314 12.3315C12.8314 12.6315 12.4244 12.8001 12 12.8001H6.40005C5.9757 12.8001 5.56874 12.6315 5.26868 12.3315C4.96862 12.0314 4.80005 11.6244 4.80005 11.2001V3.2001ZM6.40005 2.4001C6.18788 2.4001 5.98439 2.48438 5.83436 2.63441C5.68433 2.78444 5.60005 2.98792 5.60005 3.2001V11.2001C5.60005 11.4123 5.68433 11.6158 5.83436 11.7658C5.98439 11.9158 6.18788 12.0001 6.40005 12.0001H12C12.2122 12.0001 12.4157 11.9158 12.5657 11.7658C12.7158 11.6158 12.8 11.4123 12.8 11.2001V6.4001H10C9.68179 6.4001 9.37656 6.27367 9.15152 6.04863C8.92648 5.82358 8.80005 5.51836 8.80005 5.2001V2.4001H6.40005ZM9.60005 2.5657V5.2001C9.60005 5.30618 9.64219 5.40793 9.71721 5.48294C9.79222 5.55795 9.89396 5.6001 10 5.6001H12.6344L9.60005 2.5657Z" fill="#11EFFF"/>
<path d="M3.19995 4.0002C3.19995 3.78802 3.28424 3.58454 3.43427 3.43451C3.5843 3.28448 3.78778 3.2002 3.99995 3.2002V11.2002C3.99995 11.8367 4.25281 12.4472 4.7029 12.8973C5.15298 13.3473 5.76343 13.6002 6.39995 13.6002H12C12 13.8124 11.9157 14.0159 11.7656 14.1659C11.6156 14.3159 11.4121 14.4002 11.2 14.4002H6.35195C5.51599 14.4002 4.71427 14.0681 4.12315 13.477C3.53204 12.8859 3.19995 12.0842 3.19995 11.2482V4.0002Z" fill="#11EFFF"/>
</svg>
