<svg width="28" height="28" viewBox="0 0 28 28" fill="none" xmlns="http://www.w3.org/2000/svg">
<path d="M14.875 18.5735H15.6333C16.3917 18.5735 17.0217 17.8969 17.0217 17.0802C17.0217 16.0652 16.66 15.8669 16.065 15.6569L14.8867 15.2485V18.5735H14.875Z" fill="#28A745"/>
<path d="M13.965 2.21682C7.525 2.24015 2.31 7.47848 2.33333 13.9185C2.35666 20.3585 7.595 25.5735 14.035 25.5501C20.475 25.5268 25.69 20.2885 25.6667 13.8485C25.6433 7.40848 20.405 2.20515 13.965 2.21682ZM16.6367 14.0001C17.5467 14.3151 18.7717 14.9918 18.7717 17.0801C18.7717 18.8768 17.36 20.3235 15.6333 20.3235H14.875V21.0002C14.875 21.4785 14.4783 21.8752 14 21.8752C13.5217 21.8752 13.125 21.4785 13.125 21.0002V20.3235H12.705C10.7917 20.3235 9.24 18.7135 9.24 16.7301C9.24 16.2518 9.63666 15.8551 10.115 15.8551C10.5933 15.8551 10.99 16.2518 10.99 16.7301C10.99 17.7451 11.76 18.5735 12.705 18.5735H13.125V14.6301L11.3633 14.0001C10.4533 13.6851 9.22833 13.0085 9.22833 10.9201C9.22833 9.12348 10.64 7.67682 12.3667 7.67682H13.125V7.00015C13.125 6.52182 13.5217 6.12515 14 6.12515C14.4783 6.12515 14.875 6.52182 14.875 7.00015V7.67682H15.295C17.2083 7.67682 18.76 9.28682 18.76 11.2701C18.76 11.7485 18.3633 12.1451 17.885 12.1451C17.4067 12.1451 17.01 11.7485 17.01 11.2701C17.01 10.2551 16.24 9.42682 15.295 9.42682H14.875V13.3701L16.6367 14.0001Z" fill="#28A745"/>
<path d="M10.99 10.9318C10.99 11.9468 11.3517 12.1451 11.9467 12.3551L13.125 12.7634V9.42676H12.3667C11.6083 9.42676 10.99 10.1034 10.99 10.9318Z" fill="#28A745"/>
</svg>
