<svg width="57" height="56" viewBox="0 0 57 56" fill="none" xmlns="http://www.w3.org/2000/svg">
<path d="M28.3889 3C23.4663 3 18.6543 4.45971 14.5614 7.19453C10.4684 9.92936 7.27835 13.8165 5.39456 18.3643C3.51078 22.9122 3.0179 27.9165 3.97824 32.7445C4.93859 37.5724 7.30902 42.0072 10.7898 45.488C14.2706 48.9688 18.7053 51.3392 23.5333 52.2995C28.3613 53.2599 33.3656 52.767 37.9135 50.8832C42.4613 48.9994 46.3484 45.8094 49.0833 41.7164C51.8181 37.6235 53.2778 32.8114 53.2778 27.8889C53.2778 21.2879 50.6556 14.9574 45.988 10.2898C41.3204 5.62222 34.9898 3 28.3889 3ZM28.3889 49.6667C24.0817 49.6667 19.8712 48.3894 16.2898 45.9964C12.7085 43.6035 9.91717 40.2023 8.26886 36.2229C6.62055 32.2435 6.18928 27.8647 7.02958 23.6403C7.86988 19.4158 9.94401 15.5353 12.9897 12.4897C16.0354 9.444 19.9158 7.36987 24.1403 6.52957C28.3647 5.68926 32.7435 6.12054 36.7229 7.76885C40.7023 9.41715 44.1035 12.2085 46.4965 15.7898C48.8894 19.3711 50.1667 23.5816 50.1667 27.8889C50.1667 33.6647 47.8722 39.204 43.7881 43.2881C39.704 47.3722 34.1647 49.6667 28.3889 49.6667Z" fill="#90E3FF"/>
<path d="M29.9436 33.2439H26.8683L26.6289 14H30.2015L29.9436 33.2439ZM26.5 39.0999C26.5 38.5474 26.6657 38.0871 26.9972 37.7188C27.341 37.3382 27.8443 37.1479 28.5073 37.1479C29.1702 37.1479 29.6735 37.3382 30.0173 37.7188C30.361 38.0871 30.5329 38.5474 30.5329 39.0999C30.5329 39.6523 30.361 40.1127 30.0173 40.481C29.6735 40.8371 29.1702 41.0151 28.5073 41.0151C27.8443 41.0151 27.341 40.8371 26.9972 40.481C26.6657 40.1127 26.5 39.6523 26.5 39.0999Z" fill="#90E3FF"/>
</svg>
