<svg width="639" height="639" viewBox="0 0 639 639" fill="none" xmlns="http://www.w3.org/2000/svg">
<g filter="url(#filter0_dii)">
<path d="M285.077 155.326C282.273 141.83 268.977 133.007 255.966 137.558C220.002 150.137 188.459 173.337 165.687 204.363C137.966 242.132 125.205 288.825 129.864 335.444C134.524 382.062 156.273 425.307 190.921 456.843C225.569 488.378 270.664 505.974 317.514 506.238C364.364 506.502 409.654 489.416 444.655 458.273C479.656 427.13 501.892 384.133 507.077 337.57C512.261 291.007 500.028 244.173 472.734 206.093C450.313 174.813 419.034 151.259 383.213 138.275C370.254 133.578 356.86 142.251 353.904 155.714C350.948 169.177 359.6 182.286 372.324 187.587C396.156 197.516 416.933 213.925 432.163 235.173C452.273 263.23 461.287 297.738 457.467 332.046C453.647 366.355 437.263 398.035 411.474 420.981C385.685 443.928 352.315 456.517 317.795 456.323C283.276 456.128 250.05 443.163 224.52 419.928C198.991 396.692 182.966 364.829 179.533 330.48C176.1 296.131 185.502 261.727 205.928 233.898C221.396 212.823 242.357 196.649 266.299 186.989C279.082 181.832 287.881 168.822 285.077 155.326Z" fill="#10CDDB"/>
</g>
<path d="M315.61 526.782C315.588 528.004 316.563 529.014 317.786 529.023C363.564 529.356 408.218 514.699 444.912 487.257C482.197 459.373 509.143 419.874 521.503 374.986C533.864 330.098 530.935 282.373 513.179 239.333C495.424 196.293 463.85 160.385 423.435 137.269C383.021 114.152 336.062 105.142 289.962 111.658C243.861 118.173 201.239 139.845 168.814 173.256C136.389 206.668 116.004 249.919 110.872 296.194C105.821 341.735 115.826 387.656 139.322 426.946C139.949 427.995 141.314 428.323 142.357 427.685C143.399 427.046 143.725 425.683 143.098 424.633C120.115 386.182 110.33 341.246 115.273 296.682C120.296 251.384 140.251 209.046 171.992 176.34C203.732 143.634 245.454 122.42 290.581 116.042C335.709 109.664 381.675 118.484 421.237 141.112C460.798 163.74 491.705 198.89 509.086 241.022C526.467 283.153 529.334 329.87 517.234 373.811C505.135 417.751 478.758 456.416 442.26 483.711C406.353 510.565 362.66 524.912 317.865 524.596C316.642 524.587 315.632 525.559 315.61 526.782Z" fill="#10CDDB"/>
<path d="M166.388 150.195C165.964 149.726 165.238 149.689 164.771 150.116C127.507 184.153 102.513 229.549 93.6885 279.263C84.7974 329.353 92.8276 380.977 116.513 426C140.199 471.022 178.193 506.883 224.508 527.93C270.823 548.977 322.825 554.013 372.318 542.245C421.811 530.478 465.981 502.574 497.866 462.934C529.752 423.293 547.539 374.169 548.426 323.304C549.312 272.439 533.247 222.725 502.763 181.998C472.507 141.576 429.755 112.287 381.159 98.6659C380.55 98.4951 379.919 98.8538 379.751 99.4639C379.583 100.074 379.943 100.705 380.552 100.875C428.657 114.362 470.978 143.356 500.928 183.371C531.108 223.691 547.012 272.908 546.135 323.264C545.257 373.621 527.647 422.254 496.081 461.498C464.514 500.742 420.786 528.366 371.788 540.016C322.79 551.666 271.308 546.68 225.456 525.844C179.604 505.007 141.99 469.505 118.541 424.933C95.0924 380.36 87.1426 329.252 95.9447 279.663C104.68 230.451 129.421 185.511 166.308 151.816C166.775 151.389 166.813 150.664 166.388 150.195Z" fill="#10CDDB"/>
<path d="M569.672 308.515C570.366 308.485 570.906 307.896 570.872 307.202C568.205 251.796 547.32 198.808 511.44 156.474C475.289 113.82 425.972 84.4085 371.261 72.8752C316.551 61.3419 259.558 68.3424 209.265 92.7735C158.972 117.205 118.238 157.677 93.4848 207.812C68.7312 257.947 61.3647 314.894 72.5464 369.678C83.7282 424.461 112.822 473.966 155.243 510.391C197.664 546.815 251 568.087 306.845 570.855C362.269 573.602 417.038 557.966 462.647 526.397C463.219 526.001 463.358 525.215 462.96 524.645C462.561 524.075 461.775 523.937 461.203 524.333C416.052 555.582 361.836 571.059 306.969 568.339C251.683 565.599 198.881 544.54 156.884 508.48C114.887 472.42 86.084 423.41 75.0141 369.174C63.9442 314.938 71.237 258.561 95.7431 208.927C120.249 159.293 160.575 119.226 210.365 95.0389C260.155 70.8521 316.578 63.9215 370.742 75.3396C424.905 86.7576 473.729 115.875 509.519 158.102C545.037 200.009 565.713 252.464 568.356 307.31C568.389 308.005 568.977 308.545 569.672 308.515Z" fill="#10CDDB"/>
<g filter="url(#filter1_di)">
<path d="M364.938 157.278C367.718 148.244 377.333 143.102 386.079 146.685C405.338 154.573 423.203 165.593 438.938 179.333C454.672 193.072 467.999 209.291 478.41 227.31C483.138 235.494 479.339 245.715 470.762 249.687C462.185 253.658 452.091 249.863 447.201 241.775C438.914 228.068 428.54 215.695 416.424 205.115C404.308 194.535 390.65 185.923 375.952 179.558C367.278 175.802 362.158 166.312 364.938 157.278Z" fill="#9ADEF2"/>
</g>
<g filter="url(#filter2_i)">
<circle cx="463" cy="233" r="9" fill="#5AC1BB"/>
</g>
<defs>
<filter id="filter0_dii" x="28" y="25.9995" width="581.166" height="581.166" filterUnits="userSpaceOnUse" color-interpolation-filters="sRGB">
<feFlood flood-opacity="0" result="BackgroundImageFix"/>
<feColorMatrix in="SourceAlpha" type="matrix" values="0 0 0 0 0 0 0 0 0 0 0 0 0 0 0 0 0 0 127 0" result="hardAlpha"/>
<feOffset/>
<feGaussianBlur stdDeviation="19.5"/>
<feComposite in2="hardAlpha" operator="out"/>
<feColorMatrix type="matrix" values="0 0 0 0 0.48875 0 0 0 0 0.569446 0 0 0 0 0.8625 0 0 0 1 0"/>
<feBlend mode="normal" in2="BackgroundImageFix" result="effect1_dropShadow"/>
<feBlend mode="normal" in="SourceGraphic" in2="effect1_dropShadow" result="shape"/>
<feColorMatrix in="SourceAlpha" type="matrix" values="0 0 0 0 0 0 0 0 0 0 0 0 0 0 0 0 0 0 127 0" result="hardAlpha"/>
<feOffset/>
<feGaussianBlur stdDeviation="18"/>
<feComposite in2="hardAlpha" operator="arithmetic" k2="-1" k3="1"/>
<feColorMatrix type="matrix" values="0 0 0 0 1 0 0 0 0 1 0 0 0 0 1 0 0 0 0.25 0"/>
<feBlend mode="normal" in2="shape" result="effect2_innerShadow"/>
<feColorMatrix in="SourceAlpha" type="matrix" values="0 0 0 0 0 0 0 0 0 0 0 0 0 0 0 0 0 0 127 0" result="hardAlpha"/>
<feOffset dy="4"/>
<feGaussianBlur stdDeviation="5"/>
<feComposite in2="hardAlpha" operator="arithmetic" k2="-1" k3="1"/>
<feColorMatrix type="matrix" values="0 0 0 0 1 0 0 0 0 1 0 0 0 0 1 0 0 0 0.6 0"/>
<feBlend mode="normal" in2="effect2_innerShadow" result="effect3_innerShadow"/>
</filter>
<filter id="filter1_di" x="339.361" y="132.355" width="165.979" height="132.021" filterUnits="userSpaceOnUse" color-interpolation-filters="sRGB">
<feFlood flood-opacity="0" result="BackgroundImageFix"/>
<feColorMatrix in="SourceAlpha" type="matrix" values="0 0 0 0 0 0 0 0 0 0 0 0 0 0 0 0 0 0 127 0" result="hardAlpha"/>
<feOffset/>
<feGaussianBlur stdDeviation="3.5"/>
<feComposite in2="hardAlpha" operator="out"/>
<feColorMatrix type="matrix" values="0 0 0 0 0.603922 0 0 0 0 0.870588 0 0 0 0 0.94902 0 0 0 1 0"/>
<feBlend mode="normal" in2="BackgroundImageFix" result="effect1_dropShadow"/>
<feBlend mode="normal" in="SourceGraphic" in2="effect1_dropShadow" result="shape"/>
<feColorMatrix in="SourceAlpha" type="matrix" values="0 0 0 0 0 0 0 0 0 0 0 0 0 0 0 0 0 0 127 0" result="hardAlpha"/>
<feOffset dy="6"/>
<feGaussianBlur stdDeviation="1.5"/>
<feComposite in2="hardAlpha" operator="arithmetic" k2="-1" k3="1"/>
<feColorMatrix type="matrix" values="0 0 0 0 1 0 0 0 0 1 0 0 0 0 1 0 0 0 0.39 0"/>
<feBlend mode="normal" in2="shape" result="effect2_innerShadow"/>
</filter>
<filter id="filter2_i" x="452" y="224" width="20" height="19" filterUnits="userSpaceOnUse" color-interpolation-filters="sRGB">
<feFlood flood-opacity="0" result="BackgroundImageFix"/>
<feBlend mode="normal" in="SourceGraphic" in2="BackgroundImageFix" result="shape"/>
<feColorMatrix in="SourceAlpha" type="matrix" values="0 0 0 0 0 0 0 0 0 0 0 0 0 0 0 0 0 0 127 0" result="hardAlpha"/>
<feOffset dx="-2" dy="1"/>
<feGaussianBlur stdDeviation="2.5"/>
<feComposite in2="hardAlpha" operator="arithmetic" k2="-1" k3="1"/>
<feColorMatrix type="matrix" values="0 0 0 0 0 0 0 0 0 0 0 0 0 0 0 0 0 0 0.25 0"/>
<feBlend mode="normal" in2="shape" result="effect1_innerShadow"/>
</filter>
</defs>
</svg>
