<svg id="Layer_1" data-name="Layer 1" xmlns="http://www.w3.org/2000/svg" viewBox="0 0 32 32"><defs><style>.cls-1{fill:#00091c;}.cls-2{fill:#cdddeb;}.cls-3{fill:#53748f;}.cls-4{fill:#6679be;}.cls-5{fill:#293a66;}.cls-6{fill:aqua;}</style></defs><title>favicon-04</title><path class="cls-1" d="M2.33,18.31l0-.08a3.85,3.85,0,0,1-.17-2.1c0-.14.06-.3.1-.47a3,3,0,0,1,.47-.84A2.33,2.33,0,0,1,4.25,14l-.11.61a3.05,3.05,0,0,0,.1,1.26.13.13,0,0,0,0,.06.45.45,0,0,0,0,.11l.31-.31a2.73,2.73,0,0,1,.31-.27l1-.7.18-.17A1.19,1.19,0,0,0,6,14.41a6.47,6.47,0,0,1-.38-.88,2.45,2.45,0,0,1,0-.73,5.14,5.14,0,0,1,.22-.59A19.85,19.85,0,0,1,7.07,10,14.73,14.73,0,0,1,9.14,7.46a5.83,5.83,0,0,1,1.5-1.18.77.77,0,0,1,.3,0h0a7.35,7.35,0,0,1,1.88-1.85,9.38,9.38,0,0,1,1.91-1.12A5,5,0,0,1,15.58,3l2.16-.39-.13.15h.74l0,.8a7.42,7.42,0,0,1-.25,1.69h0a13.57,13.57,0,0,1,2.2.32L23,6.26c.37-.11.74-.21,1.11-.29a4.67,4.67,0,0,1,1.18-.1l.59.07.08.59a8.34,8.34,0,0,1,0,1.58,6.39,6.39,0,0,1-.95,3,5.65,5.65,0,0,1-1.62,1.61A21.9,21.9,0,0,1,26,14.14a15.17,15.17,0,0,1,3.47,3,8,8,0,0,1,1,1.48l1.09,2.2L29.42,19.6A10.78,10.78,0,0,0,28.18,19a19.44,19.44,0,0,0-3.33-1,16.2,16.2,0,0,0-2.09-.31,15.35,15.35,0,0,1,2.84,1.81,7.56,7.56,0,0,1,1.06,1l1.53,1.77-2.28-.53-1.58-.33c-1.15-.23-2.3-.42-3.46-.55a19.78,19.78,0,0,0-2.66-.16h-.49a10.47,10.47,0,0,1,1.1,1.11l.36.44a17,17,0,0,1,1.83.86,16.59,16.59,0,0,1,1.47.86l2.46,1.69-3-.3c-.57-.05-1.15-.1-1.73-.13l2.59,1.27L19,26.26c-.28,0-.57,0-.85,0-.87,0-1.73.1-2.59.19l-.55.07-.93.68a8,8,0,0,1-2.15,1L10.29,29a5.34,5.34,0,0,1-1,.31,5.43,5.43,0,0,1-2.27,0,4.19,4.19,0,0,1-.47-.14l-.14-.06A3.13,3.13,0,0,1,5.12,28a3.06,3.06,0,0,1-.47-1l-.17-.7.24-.07a3.43,3.43,0,0,1,.06-.57l-.17.06h0l-.07-.21a5.71,5.71,0,0,1-1.28-.2,2.89,2.89,0,0,1-1.59-.88l0,0L1,22.79.44,21.44a.49.49,0,0,1,0-.12V21a2.33,2.33,0,0,1,0-.38l0-.1,0,0a3.37,3.37,0,0,1,.15-.48v-.05a6.87,6.87,0,0,1,.59-.89,1.75,1.75,0,0,1,.82-.57l.07,0Z"/><path class="cls-2" d="M9,25.28a11.29,11.29,0,0,0,.74-3.74,6.91,6.91,0,0,0-1.15-4.31,6.54,6.54,0,0,1,2.74,3.21c1,2.31.49,3.4.49,3.4s-.06-.82-.17-1.48a3.7,3.7,0,0,0-.39-1.14,9.86,9.86,0,0,1,0,1.74,4.15,4.15,0,0,1-.52,1.53s0-.34.06-1.09a3.77,3.77,0,0,0-.06-1.06,8.87,8.87,0,0,1-.67,2.21,2.68,2.68,0,0,1-.85,1,4.1,4.1,0,0,0,.47-1,1.94,1.94,0,0,0,.1-.68,6.07,6.07,0,0,1-.48,1A4.54,4.54,0,0,1,9,25.28ZM3.33,15.15s-.28.13-.47,1.12A3,3,0,0,0,3,17.92l1-.89a1.65,1.65,0,0,1-.44-1,1.55,1.55,0,0,1,.16-1Z"/><path class="cls-3" d="M9,25.28a7.63,7.63,0,0,0,.49-1.71A9.85,9.85,0,0,0,10,22.38a1.56,1.56,0,0,1,.09.71l0,.42a3.61,3.61,0,0,0,.37-1.61,3.25,3.25,0,0,0-.11-1.39,2.92,2.92,0,0,1,.46.78,2.14,2.14,0,0,1,.2.62A6.81,6.81,0,0,0,11,21a2.46,2.46,0,0,0-.19-.8l.35.29a5.89,5.89,0,0,0-1-1.83,6,6,0,0,0-1.54-1.42,6.54,6.54,0,0,1,2.74,3.21c1,2.31.49,3.4.49,3.4s-.06-.82-.17-1.48a3.7,3.7,0,0,0-.39-1.14,9.86,9.86,0,0,1,0,1.74,4.15,4.15,0,0,1-.52,1.53s0-.34.06-1.09a3.77,3.77,0,0,0-.06-1.06,8.87,8.87,0,0,1-.67,2.21,2.68,2.68,0,0,1-.85,1,4.1,4.1,0,0,0,.47-1,1.94,1.94,0,0,0,.1-.68,6.07,6.07,0,0,1-.48,1A4.54,4.54,0,0,1,9,25.28Z"/><path class="cls-3" d="M2.86,17.49l.43-.38a5.51,5.51,0,0,1,.13-1.86A2.6,2.6,0,0,1,3.55,15l.1-.06a1.55,1.55,0,0,0-.16,1,1.65,1.65,0,0,0,.44,1l-1,.89A2.15,2.15,0,0,1,2.86,17.49Z"/><path class="cls-4" d="M6.3,24.33a10.26,10.26,0,0,0,2.2-1.15c.77-.61.83-1,.83-1l-.6.35a7.32,7.32,0,0,0,.4-2.3,7.52,7.52,0,0,0-1.24-3.42,4.07,4.07,0,0,1,2.86,1.55,5.61,5.61,0,0,1,1.52,3,19.67,19.67,0,0,1,3.61.2,9.92,9.92,0,0,1,2.35.77A10,10,0,0,0,17,21a5.43,5.43,0,0,0-2.3-.77s.44-.3,3.53-.36A40.41,40.41,0,0,1,26.08,21a12.77,12.77,0,0,0-3.87-2.72c-2.63-1.27-2.75-1.37-2.75-1.37a20.74,20.74,0,0,1,5.55.36,19.43,19.43,0,0,1,4.79,1.69,12,12,0,0,0-4.24-4.14,14.32,14.32,0,0,0-5.5-2.3c-.14,0,1.23-.27,1.23-.27s-.11-.15-1.23-.43a5.9,5.9,0,0,0-1.72-.23,11.86,11.86,0,0,1,2.43-2.25,8.55,8.55,0,0,1,3.39-1.37,6,6,0,0,1-1,3.31c-1,1.23-1.23,1.29-1.23,1.29a3.85,3.85,0,0,0,2.45-1.83,6.75,6.75,0,0,0,.81-4.09S24.07,6.49,21.1,7.8A13.91,13.91,0,0,0,16,12.33a6.17,6.17,0,0,1,1-2.08A8.47,8.47,0,0,1,19.49,8.1s-.86.08-1.52.22a8,8,0,0,0-.92.23A16.5,16.5,0,0,1,19,6.9a5.19,5.19,0,0,1,1-.59,12.72,12.72,0,0,0-6.3.15c-2.91,1-3.7,2-3.7,2S11,7,10.85,7a12.18,12.18,0,0,0-3.13,3.43c-1.21,2-1.39,2.63-1.36,2.84a17.38,17.38,0,0,0,.75,1.58s.88.16,1-.13-.71-1.42-.71-1.42.41,0,.81.56a2.77,2.77,0,0,1,.47,1,5.72,5.72,0,0,1,1.69-1.23,3.69,3.69,0,0,1,2-.6,4.51,4.51,0,0,0-1.63.81c-1,.72-1.23,1-1.05,1.21a3.21,3.21,0,0,0,1.69.14,6.5,6.5,0,0,1,2-1.68,13.94,13.94,0,0,1,4-.87l-1.81.6a1.8,1.8,0,0,1-.73,1.87,4.42,4.42,0,0,1-3,.62,5.07,5.07,0,0,0,2.13.91,18.69,18.69,0,0,0,2.67.36,7.11,7.11,0,0,1-3.28,0,6.13,6.13,0,0,1-2.86-1.26,7.18,7.18,0,0,1-1.62-.17,2.32,2.32,0,0,1-.45-.24,7.62,7.62,0,0,1-1.07.09,1,1,0,0,1-.71-.37L5.69,16a6.3,6.3,0,0,0-.58.56l.2-.45a8.46,8.46,0,0,0-1,1c-.72.81-1.18,1.42-1.26,1.53a8.62,8.62,0,0,1,1.75.27C6.71,19.38,7,20.09,7,20.09a6,6,0,0,0-2.52-.9,4.47,4.47,0,0,0-1.69.37,1.79,1.79,0,0,0-1.35,1.65h0a1.43,1.43,0,0,1,.76-1.09c1.21-.67,3.6.28,3.6.28a8.35,8.35,0,0,0-2.55-.18,2.19,2.19,0,0,0-1,.42c1,.05,3.4.38,3.91,1.1a1.66,1.66,0,0,1,.4,1.39l-.41-.74A4.31,4.31,0,0,1,6,23.83a1.6,1.6,0,0,1-1,1Zm-.69,1.6a1.59,1.59,0,0,0,1.73,1.32c1.48-.15,2.76-1.9,2.76-1.9a1.34,1.34,0,0,1-.21.91l-.31.5A6.87,6.87,0,0,0,11,25.3c.56-.82.55-1.13.55-1.13a4.72,4.72,0,0,1-.06,1.12.88.88,0,0,0-.09.3,13.92,13.92,0,0,1,1.74-1.29,5.54,5.54,0,0,1,2.35-.89,3.32,3.32,0,0,0-1.33,0c-1.12.1-1.2.12-1.2.12a6.08,6.08,0,0,1,2.06-.87,4.39,4.39,0,0,1,1.52-.17,13.21,13.21,0,0,0-2-.32,10.14,10.14,0,0,0-1.48-.08,8,8,0,0,1,4.2.3,18.57,18.57,0,0,1,4.75,2.2,35.43,35.43,0,0,0-3.65-.17c-1.24.07-1.36.09-1.36.09l2.05,1a22.2,22.2,0,0,0-3.57.19,14.23,14.23,0,0,0-3.72.86,6.26,6.26,0,0,0,1.42.1l.45-.07a7.43,7.43,0,0,1-2.51,1.09,14.38,14.38,0,0,1-2.34.39l1.16.21a5,5,0,0,1-2.8.26,2.45,2.45,0,0,1-1.79-1.68,1.52,1.52,0,0,0,.49.57,2.1,2.1,0,0,0,1,.38A5.19,5.19,0,0,1,5.71,27c-.39-.41-.15-1.33-.15-1.33Zm6-19.38s.21-.47,1.64-1.55a6.5,6.5,0,0,1,2.43-1.25l-.37.42s-.17,0,.88-.32a5.81,5.81,0,0,1,1.33-.33,7.43,7.43,0,0,1-.23,1.54,2.46,2.46,0,0,1-.2.57A5.21,5.21,0,0,0,14.29,6a20.83,20.83,0,0,0-2.89,1.2Z"/><path class="cls-5" d="M6.3,24.33a10.26,10.26,0,0,0,2.2-1.15c.77-.61.83-1,.83-1l-.6.35a7.32,7.32,0,0,0,.4-2.3,7.35,7.35,0,0,0-1.19-3.35,6,6,0,0,1,.62,2.08,7,7,0,0,1-.15,2.8L7,22.65s0-.23-.48-.8-.83-.44-.83-.44h0a1.14,1.14,0,0,1,.4.33,1.66,1.66,0,0,1,.4,1.39l-.41-.74A4.31,4.31,0,0,1,6,23.83a1.6,1.6,0,0,1-1,1ZM7,14.72a1.42,1.42,0,0,0,.07.14s.88.16,1-.13-.71-1.42-.71-1.42.23-.17.78.12a1.22,1.22,0,0,1,.65.68,7.28,7.28,0,0,1,2.82-1.29c1.34-.17,1.35,0,1.35,0a4.81,4.81,0,0,0-.95.67,4.93,4.93,0,0,0-.83.78,8.82,8.82,0,0,1,4.37-1.63,13.12,13.12,0,0,1,3.13-.12l-2.23.84a4.52,4.52,0,0,1-1,2.16,1.9,1.9,0,0,1-1.68.67,7.13,7.13,0,0,0,1.73.38c1.54.25,1.86.09,1.86.09a4.43,4.43,0,0,1-4,.86,7.55,7.55,0,0,1-3.71-1.75h0l.82,0a6.13,6.13,0,0,0,2.86,1.26,7.11,7.11,0,0,0,3.28,0A18.69,18.69,0,0,1,14,16.66a5.07,5.07,0,0,1-2.13-.91,4.42,4.42,0,0,0,3-.62,1.8,1.8,0,0,0,.73-1.87l1.81-.6a13.94,13.94,0,0,0-4,.87,6.5,6.5,0,0,0-2,1.68,3.21,3.21,0,0,1-1.69-.14c-.18-.24,0-.49,1.05-1.21a4.51,4.51,0,0,1,1.63-.81,3.69,3.69,0,0,0-2,.6,5.72,5.72,0,0,0-1.69,1.23,2.77,2.77,0,0,0-.47-1c-.4-.59-.81-.56-.81-.56s.64,1,.09,1.28A2.13,2.13,0,0,1,7,14.72Zm1.33,2.13a4.51,4.51,0,0,1,2.38,1.49,5.61,5.61,0,0,1,1.52,3,19.67,19.67,0,0,1,3.61.2,9.92,9.92,0,0,1,2.35.77A10,10,0,0,0,17,21a5.43,5.43,0,0,0-2.3-.77s.44-.3,3.53-.36A40.41,40.41,0,0,1,26.08,21a12.77,12.77,0,0,0-3.87-2.72c-2.63-1.27-2.75-1.37-2.75-1.37a20.74,20.74,0,0,1,5.55.36,19.43,19.43,0,0,1,4.79,1.69,12,12,0,0,0-4.24-4.14,16.51,16.51,0,0,0-4.83-2.17,10.92,10.92,0,0,1,2.17,1.11,36.31,36.31,0,0,1,3.68,2.58S26.06,16,23,15.63a12.6,12.6,0,0,0-5.48.62s-.34,0,1.59.88a15,15,0,0,1,3.36,2.12s-.94-.43-4.13-.31-4.4,1.22-4.4,1.22l.66.48-1.22-.09a7.59,7.59,0,0,0-1.68-2.3A6.41,6.41,0,0,0,8.37,16.85Zm11.68-4.36Zm.74-.17.5-.1s-.11-.15-1.23-.43a5.9,5.9,0,0,0-1.72-.23l-.43-.11a8.85,8.85,0,0,1,3.8-3,15.46,15.46,0,0,1,3.52-.88,6,6,0,0,1-.85,3.18,3.85,3.85,0,0,1-2.45,1.83s.22-.06,1.23-1.29a6,6,0,0,0,1-3.31,8.55,8.55,0,0,0-3.39,1.37,11.86,11.86,0,0,0-2.43,2.25,4.62,4.62,0,0,1,1.08.18A7.33,7.33,0,0,1,20.79,12.32ZM5.61,25.93a1.59,1.59,0,0,0,1.73,1.32c1.48-.15,2.76-1.9,2.76-1.9a1.34,1.34,0,0,1-.21.91l-.31.5A6.87,6.87,0,0,0,11,25.3c.56-.82.55-1.13.55-1.13a4.72,4.72,0,0,1-.06,1.12.88.88,0,0,0-.09.3,13.92,13.92,0,0,1,1.74-1.29,5.54,5.54,0,0,1,2.35-.89,3.32,3.32,0,0,0-1.33,0c-1.12.1-1.2.12-1.2.12a6.08,6.08,0,0,1,2.06-.87,4.39,4.39,0,0,1,1.52-.17,13.21,13.21,0,0,0-2-.32,10.14,10.14,0,0,0-1.48-.08,8,8,0,0,1,4.2.3,17.89,17.89,0,0,1,3.08,1.24l-.92.09a13.25,13.25,0,0,0-3.66.79H17l.61.29a21.71,21.71,0,0,0-2.92.53,7.76,7.76,0,0,0-3,1.24h.14a9.17,9.17,0,0,0,1,.1,5.25,5.25,0,0,1-1.65.75A26.69,26.69,0,0,1,8.23,28l.59.07.63.11a4.3,4.3,0,0,1-1.94.14c-1-.14-1.27-.57-1.33-.71a2.28,2.28,0,0,0,.72.2l-.11-.05a7.09,7.09,0,0,0,.76.18,4.12,4.12,0,0,1-1.54-1,1.9,1.9,0,0,1-.41-1.06l0-.18Zm14.77-2.31a15.75,15.75,0,0,1,1.5.86A15.75,15.75,0,0,0,20.38,23.62Zm-7.54,3h0Zm0,0h0Zm0,0h0Zm0,0h0Zm0,0h0Zm0,0h0Zm0,0h0Zm0,0h0Zm0,0h0Zm0,0h0Zm0,0h0Zm0,0h0Zm0,0h0Zm0,0h0Zm0,0h0Zm-7.32.77,0,0Zm0,0h0Zm0,0,0,0Zm0,0h0Zm0,0H6Zm0,0v0Zm0,0H6Zm0,0H6Zm0,0H6Zm0,0h0Zm0,0h0Z"/><path class="cls-6" d="M25.22,7c0-.25,0-.41,0-.41S24.07,6.49,21.1,7.8A13.91,13.91,0,0,0,16,12.33s3.13-3.44,6.37-4.53A22.2,22.2,0,0,1,25.22,7Zm-5.7-.43a2.82,2.82,0,0,1,.56-.29,12.72,12.72,0,0,0-6.3.15c-2.91,1-3.7,2-3.7,2S11,7,10.85,7a12.18,12.18,0,0,0-3.13,3.43c-1.21,2-1.39,2.63-1.36,2.84a17.38,17.38,0,0,0,.75,1.58,12.81,12.81,0,0,1-.35-1.69c0-.14,1.86-3.26,2.44-4s.59-.72.59-.72L9.56,9.63a12.9,12.9,0,0,1,4.17-2.72A14.22,14.22,0,0,1,19.52,6.6ZM7,15.37a1.17,1.17,0,0,1-.32-.26L5.69,16a6.3,6.3,0,0,0-.58.56l.2-.45a8.46,8.46,0,0,0-1,1c-.72.81-1.18,1.42-1.26,1.53.17,0,.36,0,.56.05L4.9,16.92l-.15.44Zm0,4.72a6,6,0,0,0-2.52-.9,4.47,4.47,0,0,0-1.69.37A1.91,1.91,0,0,0,1.43,21l.06-.08a1.44,1.44,0,0,1,.68-.77A1.82,1.82,0,0,1,2.65,20a4.27,4.27,0,0,1,1-.37A4.53,4.53,0,0,1,7,20.09ZM12.18,6.8a9.54,9.54,0,0,1,1.64-1.67,6.54,6.54,0,0,1,1.11-.73l-.22.6S16,4.27,17.06,3.82l.49-.21V3.52a5.81,5.81,0,0,0-1.33.33c-1,.34-.88.32-.88.32l.37-.42A6.5,6.5,0,0,0,13.28,5c-1.43,1.08-1.64,1.55-1.64,1.55l-.24.63S11.67,7,12.18,6.8Z"/><path class="cls-4" d="M2.59,21.11a6.37,6.37,0,0,1,2.46.67,2,2,0,0,1,.81,1.61,2.05,2.05,0,0,1-1.19,1.38A4.08,4.08,0,0,1,2.28,24a5.75,5.75,0,0,1-.55-1.46c.14.11.64.15.6-.28s-.49-.63-.67-.71a.05.05,0,0,1,0,0A1.55,1.55,0,0,1,2.59,21.11Zm-.95,1a1.38,1.38,0,0,1,0-.5l.11.1a1.8,1.8,0,0,1,.2.22s-.06,0-.23.07A.15.15,0,0,0,1.64,22.11Zm3.08.2s-.88-.43-1.28,0a.85.85,0,0,0,.76,1.33c.77-.07.14-1.08,0-1.2S4.72,22.31,4.72,22.31Z"/><path class="cls-6" d="M12.09,15.06,14,13.88a2.24,2.24,0,0,1,1.42-.57c.91-.05,1.3.66,2.06.15s.38-1.21,1.11-1.73a1.66,1.66,0,0,1,1.68.06,1.73,1.73,0,0,0-1.4,0c-.56.35-.41,1-.77,1.55a1.38,1.38,0,0,1-1.67.63,4.1,4.1,0,0,0-1.49-.22s-1,1.58-1.33,1.65A6.16,6.16,0,0,1,12.09,15.06Z"/></svg>