<svg width="1366" height="299" viewBox="0 0 1366 299" fill="none" xmlns="http://www.w3.org/2000/svg">
<path d="M291.5 0.131729C178 -4.86828 -2 134.132 -2 134.132V299H1369V68.6317C1369 68.6317 1265.63 122.545 1195 145.632C976.735 216.974 897.5 313.151 607 145.632C388.5 19.6317 405 5.13174 291.5 0.131729Z" fill="url(#paint0_linear)"/>
<path d="M291.5 132.074C178 129.281 -2 206.916 -2 206.916V299H1369V170.333C1369 170.333 1265.63 200.445 1195 213.339C976.735 253.186 897.5 306.904 607 213.339C388.5 142.965 405 134.866 291.5 132.074Z" fill="url(#paint1_linear)"/>
<defs>
<linearGradient id="paint0_linear" x1="683.5" y1="0" x2="683" y2="325" gradientUnits="userSpaceOnUse">
<stop stop-color="#233148"/>
<stop offset="1" stop-color="#233148" stop-opacity="0"/>
</linearGradient>
<linearGradient id="paint1_linear" x1="683" y1="91.5" x2="683" y2="299" gradientUnits="userSpaceOnUse">
<stop stop-color="#475F89"/>
<stop offset="1" stop-color="#475F89" stop-opacity="0"/>
</linearGradient>
</defs>
</svg>
