<svg width="40" height="40" viewBox="0 0 40 40" fill="none" xmlns="http://www.w3.org/2000/svg">
<path d="M26.983 3.33334H13.0163C6.94967 3.33334 3.33301 6.95001 3.33301 13.0167V26.9667C3.33301 33.05 6.94967 36.6667 13.0163 36.6667H26.9663C33.033 36.6667 36.6497 33.05 36.6497 26.9833V13.0167C36.6663 6.95001 33.0497 3.33334 26.983 3.33334ZM16.5163 26.9833C16.5163 28.05 15.6497 28.9167 14.5663 28.9167C13.4997 28.9167 12.633 28.05 12.633 26.9833V21.55C12.633 20.4833 13.4997 19.6167 14.5663 19.6167C15.6497 19.6167 16.5163 20.4833 16.5163 21.55V26.9833ZM27.3663 26.9833C27.3663 28.05 26.4997 28.9167 25.433 28.9167C24.3497 28.9167 23.483 28.05 23.483 26.9833V13.0167C23.483 11.95 24.3497 11.0833 25.433 11.0833C26.4997 11.0833 27.3663 11.95 27.3663 13.0167V26.9833Z" fill="#0096FF"/>
</svg>
