<svg width="64" height="64" viewBox="0 0 64 64" fill="none" xmlns="http://www.w3.org/2000/svg">
<rect width="64" height="64" rx="8" fill="white"/>
<path d="M38.983 15.3334H25.0163C18.9497 15.3334 15.333 18.95 15.333 25.0167V38.9667C15.333 45.05 18.9497 48.6667 25.0163 48.6667H38.9663C45.033 48.6667 48.6497 45.05 48.6497 38.9834V25.0167C48.6663 18.95 45.0497 15.3334 38.983 15.3334ZM28.5163 38.9834C28.5163 40.05 27.6497 40.9167 26.5663 40.9167C25.4997 40.9167 24.633 40.05 24.633 38.9834V33.55C24.633 32.4834 25.4997 31.6167 26.5663 31.6167C27.6497 31.6167 28.5163 32.4834 28.5163 33.55V38.9834ZM39.3663 38.9834C39.3663 40.05 38.4997 40.9167 37.433 40.9167C36.3497 40.9167 35.483 40.05 35.483 38.9834V25.0167C35.483 23.95 36.3497 23.0834 37.433 23.0834C38.4997 23.0834 39.3663 23.95 39.3663 25.0167V38.9834Z" fill="#0096FF"/>
</svg>
