<svg width="25" height="25" viewBox="0 0 25 25" fill="none" xmlns="http://www.w3.org/2000/svg">
<path d="M4.6844 19.7759V20.0363H4.94481H8.18438H8.4448V19.7759V9.35708V9.09666H8.18438H4.94481H4.6844V9.35708V19.7759ZM13.5818 10.0318V9.35869V9.09827H13.3214H10.2151H9.9547V9.35869V19.7774V20.0379H10.2151H13.4526H13.713V19.7774V14.6233C13.713 13.9486 13.7792 13.3383 14.0197 12.9016C14.1367 12.6894 14.2937 12.5204 14.5065 12.4025C14.7209 12.2837 15.0073 12.2081 15.3948 12.2081C15.768 12.2081 16.0256 12.295 16.2087 12.4229C16.3925 12.5513 16.5236 12.7367 16.6166 12.9717C16.8084 13.4568 16.8177 14.0949 16.8177 14.7108V19.778V20.0384H17.0781H20.3125H20.5729V19.778V14.0623C20.5729 12.6537 20.4238 11.3471 19.8204 10.3898C19.1996 9.40499 18.1327 8.83885 16.4302 8.83885C15.1503 8.83885 14.1803 9.3764 13.5818 10.0318ZM24.7401 12.4998C24.7401 19.2601 19.2599 24.7394 12.5005 24.7394C5.74017 24.7394 0.259918 19.2601 0.259918 12.4998C0.259918 5.74057 5.74017 0.260254 12.5005 0.260254C19.2598 0.260254 24.7401 5.7426 24.7401 12.4998ZM6.56459 8.19775C7.7435 8.19775 8.70105 7.23984 8.70105 6.05921C8.70105 4.87909 7.74345 3.92122 6.56459 3.92122C5.38251 3.92122 4.42709 4.87918 4.42709 6.05921C4.42709 7.23692 5.38225 8.19775 6.56459 8.19775Z" fill="#FAFCFE"/>
</svg>
