<svg width="142" height="42" viewBox="0 0 142 42" fill="none" xmlns="http://www.w3.org/2000/svg">
<g clip-path="url(#clip0_11_459)">
<path d="M11.6794 20.9803V34.4156L0 27.6978V14.2625L11.6794 20.9803Z" fill="#C4C4C4"/>
<path d="M23.3592 14.2625V27.6978L11.6794 34.4156V20.9803L23.3592 14.2625Z" fill="#FAFCFE"/>
<path d="M46.5641 0.869751V14.305L34.8846 7.58757L46.5641 0.869751Z" fill="#FAFCFE"/>
<path d="M58.2575 20.9772V34.4125L46.5781 41.1303V27.6946L58.2575 20.9772Z" fill="#FAFCFE"/>
<path d="M46.5396 27.6947V41.1303L23.3763 27.6978V14.2625L46.5396 27.6947Z" fill="#C4C4C4"/>
<path d="M69.7871 11.4391H63.3532V7.6618H80.8745V11.4391H74.4406V27.6922H69.7875V11.4391H69.7871Z" fill="#FAFCFE"/>
<path d="M97.7063 12.2973V27.6922H93.4553V25.8609C92.8615 26.5288 92.1529 27.0392 91.3298 27.392C90.5061 27.7448 89.6158 27.9212 88.6584 27.9212C86.6284 27.9212 85.0201 27.3397 83.8328 26.1757C82.6455 25.0124 82.052 23.2857 82.052 20.9963V12.2973H86.5329V20.3381C86.5329 22.8182 87.5764 24.0582 89.6638 24.0582C90.736 24.0582 91.5975 23.7103 92.2487 23.0137C92.8996 22.3176 93.2254 21.2825 93.2254 19.909V12.2973H97.7063Z" fill="#FAFCFE"/>
<path d="M112.989 31.77L108.445 33.2038V12.2259H112.989V31.77Z" fill="#FAFCFE"/>
<path d="M105.794 8.15126L101.249 6.71741V27.6953H105.794V8.15126Z" fill="#FAFCFE"/>
<path d="M117.042 12.2259C112.712 12.2259 109.202 15.7225 109.202 20.0359C109.202 24.3493 112.712 27.846 117.042 27.846C121.372 27.846 124.882 24.3493 124.882 20.0359C124.882 15.7229 121.372 12.2259 117.042 12.2259ZM117.042 23.6556C115.035 23.6556 113.409 22.0352 113.409 20.0363C113.409 18.0373 115.035 16.4169 117.042 16.4169C119.048 16.4169 120.675 18.0373 120.675 20.0363C120.675 22.0349 119.048 23.6556 117.042 23.6556Z" fill="#FAFCFE"/>
<path d="M134.16 12.2259C129.831 12.2259 126.321 15.7225 126.321 20.0359C126.321 24.3493 129.831 27.846 134.16 27.846C138.49 27.846 142 24.3493 142 20.0359C142 15.7229 138.49 12.2259 134.16 12.2259ZM134.167 23.6556C132.161 23.6556 130.534 22.0352 130.534 20.0363C130.534 18.0373 132.161 16.4169 134.167 16.4169C136.174 16.4169 137.8 18.0373 137.8 20.0363C137.8 22.0349 136.174 23.6556 134.167 23.6556Z" fill="#FAFCFE"/>
</g>
<defs>
<clipPath id="clip0_11_459">
<rect width="142" height="40.2605" fill="white" transform="translate(0 0.869751)"/>
</clipPath>
</defs>
</svg>
