<svg width="370" height="94" viewBox="0 0 370 94" fill="none" xmlns="http://www.w3.org/2000/svg">
<g clip-path="url(#clip0_23_668)">
<path d="M144.668 30.2093C147.014 31.7686 148.895 34.071 150.074 36.8262C151.514 40.0269 152.231 43.5737 152.164 47.1567C152.263 50.7096 151.478 54.2234 149.897 57.3053C148.555 60.1484 146.41 62.414 143.797 63.7485C140.991 65.3412 137.881 66.1446 134.735 66.0892C132.885 66.098 131.05 65.6989 129.337 64.9147C127.62 64.3074 126.063 63.2365 124.802 61.7965V82.1268H114.678V28.6461H123.385L124.256 32.947C127.697 29.6085 132.081 27.7394 136.633 27.6701C139.48 27.5775 142.284 28.4636 144.668 30.2093ZM139.093 54.4105C139.961 53.5259 140.645 52.4385 141.097 51.225C141.549 50.0116 141.757 48.7018 141.707 47.3883C141.754 44.7199 140.881 42.1337 139.27 40.1677C138.519 39.262 137.602 38.5485 136.583 38.076C135.563 37.6035 134.464 37.3832 133.362 37.43C131.597 37.3479 129.847 37.8206 128.31 38.7947C126.884 39.6918 125.736 41.0534 125.017 42.6986V51.4825C125.525 53.1593 126.501 54.6089 127.801 55.618C129.259 56.6552 130.955 57.1954 132.682 57.173C135.056 57.2064 137.351 56.2175 139.093 54.4105Z" fill="white"/>
<path d="M158.087 37.0412C159.66 34.2209 161.888 31.9334 164.534 30.4243C167.449 28.7619 170.672 27.892 173.943 27.8851C177.224 27.7879 180.471 28.6578 183.359 30.4078C185.994 32.0303 188.184 34.4292 189.69 37.3449C191.196 40.2606 191.961 43.5821 191.903 46.9499C191.984 50.3774 191.198 53.7607 189.636 56.7098C188.192 59.6311 186.007 62.0083 183.359 63.5417C180.452 65.227 177.223 66.0983 173.95 66.0809C170.694 66.1353 167.471 65.3336 164.541 63.7402C161.859 62.2908 159.617 59.9896 158.094 57.1233C156.606 54.0359 155.827 50.5824 155.827 47.074C155.827 43.5655 156.606 40.1121 158.094 37.0246L158.087 37.0412ZM168.367 54.0217C169.038 54.9368 169.893 55.6611 170.862 56.1355C171.831 56.6099 172.887 56.8208 173.943 56.7511C174.993 56.7768 176.036 56.5459 176.999 56.0746C177.962 55.6032 178.822 54.9027 179.518 54.0217C180.953 52.0396 181.696 49.541 181.608 46.9912C181.724 44.4397 180.978 41.9329 179.518 39.9691C178.821 39.0212 177.94 38.2645 176.941 37.757C175.943 37.2495 174.854 37.0046 173.758 37.0412C172.71 37.0358 171.673 37.2758 170.713 37.7458C169.752 38.2159 168.891 38.9056 168.182 39.7706C166.745 41.8255 166.003 44.3828 166.085 46.9912C166.012 49.5759 166.829 52.0931 168.367 54.0217Z" fill="white"/>
<path d="M208.276 0.937927V65.1462H198.166V0.937927H208.276Z" fill="white"/>
<path d="M249.75 29.622L229.183 82.317H219.427L227.093 63.3928L212.456 29.622H223.977L232.322 50.705L240.689 29.622H249.75Z" fill="white"/>
<path d="M288.433 29.6221V65.1877C288.451 68.4781 287.535 71.6898 285.819 74.3603C284.038 77.1533 281.634 79.3748 278.847 80.8035C275.844 82.3787 272.563 83.1786 269.247 83.1442C266.953 83.1598 264.668 82.8315 262.453 82.1682C260.83 81.5329 259.257 80.75 257.748 79.8275C256.203 78.7324 254.745 77.4899 253.391 76.1138L259.299 68.3059C260.575 69.7297 262.046 70.9164 263.656 71.8211C265.342 72.7297 267.191 73.1964 269.062 73.1858C271.359 73.2523 273.616 72.5024 275.509 71.0436C276.36 70.3568 277.044 69.4437 277.5 68.3868C277.957 67.3298 278.171 66.1621 278.124 64.9892V59.8777C276.997 61.8009 275.431 63.3516 273.589 64.3689C271.305 65.5833 268.799 66.1837 266.271 66.1223C263.438 66.1542 260.656 65.2727 258.258 63.5831C255.794 61.9168 253.758 59.5627 252.35 56.7512C250.892 53.8153 250.118 50.5159 250.097 47.1568C250.039 43.7332 250.821 40.3574 252.357 37.3969C253.828 34.5168 255.927 32.1009 258.457 30.3748C260.792 28.6828 263.52 27.7996 266.3 27.8355C268.666 27.7962 271.021 28.193 273.272 29.01C275.079 29.6147 276.705 30.7583 277.976 32.3185L279.025 29.5807L288.433 29.6221ZM278.153 51.4825V42.6987C277.498 40.9392 276.329 39.481 274.837 38.5631C273.191 37.5216 271.33 36.9826 269.439 36.9999C267.113 36.9838 264.869 37.9597 263.162 39.7293C262.294 40.6162 261.61 41.7053 261.158 42.9199C260.707 44.1345 260.498 45.4452 260.547 46.7598C260.531 48.0978 260.753 49.4261 261.202 50.6662C261.651 51.9063 262.317 53.0332 263.162 53.9804C263.974 54.9225 264.95 55.6683 266.03 56.1718C267.109 56.6754 268.269 56.926 269.439 56.9084C273.456 56.7512 276.41 54.9977 278.153 51.4825Z" fill="white"/>
<path d="M296.794 37.0413C298.359 34.1566 300.588 31.7967 303.248 30.2094C306.162 28.5458 309.386 27.6758 312.657 27.6702C315.937 27.5845 319.18 28.4598 322.065 30.2094C324.675 31.7994 326.844 34.163 328.335 37.0413C329.817 40.0267 330.598 43.3852 330.602 46.8011C330.683 50.2287 329.897 53.6119 328.335 56.561C326.942 59.5225 324.747 61.914 322.065 63.3929C319.156 65.0717 315.929 65.9399 312.657 65.9239C309.4 65.9845 306.176 65.1825 303.248 63.5832C300.563 62.1347 298.319 59.8335 296.794 56.9663C295.193 53.8209 294.41 50.2368 294.534 46.6192C294.496 43.2559 295.277 39.9447 296.794 37.0413ZM306.904 54.0218C307.575 54.9369 308.43 55.6613 309.399 56.1356C310.368 56.61 311.424 56.821 312.479 56.7513C313.53 56.7758 314.573 56.5444 315.535 56.0732C316.498 55.6019 317.358 54.902 318.055 54.0218C319.49 52.0397 320.233 49.5412 320.145 46.9914C320.26 44.4398 319.514 41.933 318.055 39.9692C317.358 39.0891 316.498 38.3892 315.535 37.9179C314.573 37.4466 313.53 37.2152 312.479 37.2398C311.431 37.2344 310.394 37.4744 309.434 37.9445C308.474 38.4145 307.612 39.1042 306.904 39.9692C306.132 40.9153 305.535 42.0224 305.146 43.2274C304.757 44.4324 304.584 45.7114 304.636 46.9914C304.722 49.5416 305.515 51.9988 306.904 54.0218Z" fill="white"/>
<path d="M366.324 30.7966C368.414 32.7486 369.278 35.2878 369.462 38.406V65.1463H359.182V42.6987C359.005 39.1917 357.437 37.4355 354.478 37.43C353.335 37.4235 352.212 37.7657 351.23 38.42C350.248 39.0743 349.443 40.0159 348.902 41.1437C347.437 43.9839 346.712 47.228 346.812 50.5065V65.1463H336.702V29.6221H345.941L346.635 35.2878C347.791 32.9962 349.478 31.0961 351.517 29.7875C353.756 28.4134 356.283 27.7391 358.835 27.8355C361.575 27.732 364.249 28.7894 366.324 30.7966Z" fill="white"/>
<path d="M71.4821 29.0431C70.5821 28.4687 69.564 28.1667 68.5281 28.1667C67.4922 28.1667 66.4741 28.4687 65.5741 29.0431L51.9634 38.0585L42.7246 43.8483L29.1361 52.8472C28.236 53.4216 27.218 53.7236 26.1821 53.7236C25.1462 53.7236 24.1281 53.4216 23.228 52.8472L12.4089 45.8251C11.527 45.242 10.7928 44.4162 10.2758 43.4261C9.75878 42.436 9.47622 41.3144 9.45488 40.1677V26.3054C9.43836 25.15 9.70502 24.0117 10.2258 23.0142C10.7467 22.0168 11.5017 21.1983 12.4089 20.6479L23.036 13.816C23.9373 13.2456 24.9549 12.9459 25.9901 12.9459C27.0253 12.9459 28.0429 13.2456 28.9441 13.816L39.5934 20.6893C40.4753 21.2724 41.2095 22.0982 41.7265 23.0883C42.2435 24.0784 42.5261 25.2 42.5474 26.3467V35.2877L51.7787 29.2333V20.2592C51.7961 19.1037 51.5298 17.965 51.0089 16.9674C50.4879 15.9697 49.7324 15.1515 48.8247 14.6018L29.1361 1.71546C28.2349 1.14504 27.2173 0.845276 26.1821 0.845276C25.1469 0.845276 24.1293 1.14504 23.228 1.71546L3.1628 14.6018C2.25616 15.1529 1.50156 15.9715 0.980813 16.9688C0.46007 17.9661 0.19307 19.104 0.208769 20.2592V46.2138C0.19307 47.369 0.46007 48.507 0.980813 49.5042C1.50156 50.5016 2.25616 51.3201 3.1628 51.8712L23.2133 64.7576C24.1145 65.328 25.1321 65.6277 26.1673 65.6277C27.2025 65.6277 28.2201 65.328 29.1213 64.7576L42.7099 55.9737L51.9486 49.9193L65.5593 41.1437C66.4594 40.5693 67.4774 40.2673 68.5133 40.2673C69.5492 40.2673 70.5673 40.5693 71.4673 41.1437L82.1092 47.9838C82.9917 48.5683 83.7263 49.3955 84.2432 50.387C84.7602 51.3785 85.0425 52.5015 85.0633 53.6495V67.487C85.0806 68.6425 84.8143 69.7812 84.2934 70.7789C83.7725 71.7765 83.017 72.5948 82.1092 73.1444L71.4821 80.1748C70.5809 80.7453 69.5633 81.045 68.5281 81.045C67.4929 81.045 66.4753 80.7453 65.5741 80.1748L54.9396 73.3429C54.0577 72.7598 53.3234 71.9341 52.8064 70.944C52.2894 69.9539 52.0069 68.8322 51.9855 67.6855V58.7362L42.7246 64.7576V73.7317C42.7081 74.887 42.9748 76.0253 43.4956 77.0228C44.0164 78.0203 44.7715 78.8387 45.6787 79.3891L65.7144 92.2754C66.6156 92.8458 67.6332 93.1456 68.6684 93.1456C69.7036 93.1456 70.7212 92.8458 71.6224 92.2754L91.6951 79.4139C92.5774 78.8314 93.3121 78.0058 93.8291 77.0155C94.3462 76.0253 94.6284 74.9034 94.6491 73.7565V47.7771C94.6648 46.6219 94.3978 45.4839 93.877 44.4866C93.3563 43.4893 92.6017 42.6707 91.6951 42.1196L71.4821 29.0431Z" fill="white"/>
</g>
<defs>
<clipPath id="clip0_23_668">
<rect width="369.254" height="92.3134" fill="white" transform="translate(0.208954 0.838745)"/>
</clipPath>
</defs>
</svg>
