<svg width="25" height="25" viewBox="0 0 25 25" fill="none" xmlns="http://www.w3.org/2000/svg">
<path d="M24.876 12.5C24.876 19.3339 19.3349 24.875 12.5005 24.875C5.66615 24.875 0.125 19.3339 0.125 12.5C0.125 5.66458 5.66615 0.125 12.5005 0.125C19.3349 0.125 24.876 5.66458 24.876 12.5ZM19.8078 6.44531C19.1948 6.8099 18.5156 7.07448 17.7922 7.21667C17.2141 6.59896 16.3891 6.21354 15.4719 6.21354C13.7198 6.21354 12.2984 7.6349 12.2984 9.38802C12.2984 9.63698 12.3266 9.87813 12.3797 10.1109C9.74271 9.97812 7.40365 8.7151 5.83854 6.79479C5.56562 7.2625 5.40885 7.80885 5.40885 8.39062C5.40885 9.49115 5.96927 10.4625 6.82083 11.0312C6.30104 11.0151 5.81094 10.8719 5.38281 10.6344V10.6745C5.38281 12.2115 6.47656 13.4943 7.92917 13.7865C7.6625 13.8594 7.38229 13.8984 7.09271 13.8984C6.88802 13.8984 6.68906 13.8781 6.49583 13.8417C6.90052 15.1021 8.07187 16.0198 9.46042 16.0458C8.37396 16.8969 7.00625 17.4036 5.51927 17.4036C5.26302 17.4036 5.01042 17.3896 4.7625 17.3599C6.16667 18.2604 7.8349 18.7849 9.62708 18.7849C15.4651 18.7849 18.6568 13.95 18.6568 9.75521C18.6568 9.61823 18.6547 9.48073 18.6479 9.34427C19.2677 8.8974 19.8062 8.33802 20.2307 7.7026C19.6625 7.95521 19.0505 8.125 18.4089 8.20156C19.0672 7.80937 19.5708 7.1875 19.8078 6.44531Z" fill="#FAFCFE"/>
</svg>
