<svg width="25" height="25" viewBox="0 0 25 25" fill="none" xmlns="http://www.w3.org/2000/svg">
<path d="M12.5 0C5.58333 0 0 5.58333 0 12.5C0 19.4167 5.58333 25 12.5 25C19.4167 25 25 19.4167 25 12.5C25 5.58333 19.4167 0 12.5 0ZM19.5417 5.79167L16.75 18.9167C16.7083 19.1667 16.4167 19.2917 16.1667 19.1667L11.875 16.2917L9.58333 18.4583C9.375 18.625 9.08333 18.5417 9 18.2917L7.5 13.625L3.54167 12C3.25 11.875 3.25 11.375 3.54167 11.25L19 5.375C19.2917 5.29167 19.5833 5.5 19.5417 5.79167Z" fill="#FAFCFE"/>
<path d="M9.45832 16.9168L9.70832 14.5002L16.7083 7.7085L8.29166 13.2502" fill="#FAFCFE"/>
</svg>
