<svg width="25" height="25" viewBox="0 0 25 25" fill="none" xmlns="http://www.w3.org/2000/svg">
<g clip-path="url(#clip0_105_5396)">
<path d="M0 14.0006C0 13.0009 0 12.0002 0 11.0005C0.200151 10.8393 0.14233 10.5924 0.179024 10.389C1.12863 5.25175 4.79585 1.43108 9.89637 0.270204C10.3011 0.177912 10.7326 0.206823 11.1117 0C12.038 0 12.9631 0 13.8894 0C13.965 0.151225 14.1129 0.0978517 14.2319 0.114531C19.309 0.856202 23.3554 4.49896 24.6331 9.46493C24.7732 10.0109 24.7743 10.5858 25.0011 11.1106C25.0011 12.0736 25.0011 13.0365 25.0011 13.9995C24.8076 14.1829 24.8466 14.4409 24.8076 14.6644C23.9436 19.6326 20.1519 23.5945 15.2104 24.6987C14.77 24.7965 14.3019 24.7787 13.8894 24.9989C12.9264 24.9989 11.9635 24.9989 11.0005 24.9989C10.8171 24.8054 10.5591 24.8443 10.3356 24.8054C5.4152 23.9525 1.42552 20.1708 0.318018 15.3171C0.21683 14.8779 0.244629 14.4053 0 14.0006ZM20.8691 15.465C20.8357 13.3178 20.5255 11.4398 19.6815 9.69955C18.2705 6.78846 18.6552 7.15207 15.5518 6.25695C15.4806 6.23693 15.3994 6.24583 15.3338 6.21692C14.9246 6.03345 14.6978 6.2247 14.5944 6.59832C14.4843 6.99973 14.2352 7.01975 13.8794 6.96971C12.9598 6.83739 12.0313 6.83628 11.1128 6.9686C10.7492 7.02086 10.5268 6.98083 10.3934 6.59609C10.3267 6.40262 10.2822 6.09016 9.92639 6.1591C8.85224 6.36814 7.81146 6.68394 6.81626 7.14206C6.72175 7.18543 6.63724 7.27772 6.5783 7.36668C4.77138 10.1354 3.8985 13.1477 4.19873 16.4691C4.21652 16.6704 4.29102 16.8038 4.45892 16.9217C5.58422 17.7178 6.80069 18.3305 8.11502 18.7464C8.234 18.7842 8.38745 18.8643 8.48419 18.7553C8.81777 18.3806 9.1458 17.958 9.24254 17.4865C9.2948 17.233 8.77774 17.2286 8.54535 17.064C8.50087 17.0329 8.43526 17.0251 8.39968 16.9873C8.29182 16.8716 7.96935 16.9017 8.09278 16.6392C8.19397 16.4246 8.40524 16.5203 8.58093 16.5936C11.1918 17.6756 13.7993 17.6444 16.4013 16.5614C16.5959 16.4802 16.8172 16.3813 16.9161 16.647C17.0006 16.875 16.7282 16.8505 16.617 16.9372C16.3312 17.1585 15.7541 17.1452 15.7274 17.471C15.7019 17.7901 16.0588 18.1415 16.2489 18.4784C16.2578 18.494 16.2734 18.5073 16.2812 18.524C16.4246 18.8253 16.627 18.8854 16.9484 18.7631C17.849 18.4217 18.7075 17.9992 19.5659 17.5644C20.55 17.0651 21.1115 16.3991 20.8691 15.465Z" fill="#FAFCFE"/>
<path d="M13.7704 13.1257C13.7737 12.195 14.4331 11.4522 15.2637 11.4444C16.1222 11.4366 16.7882 12.1983 16.7671 13.1646C16.7482 14.0697 16.0855 14.7914 15.2782 14.788C14.4442 14.7869 13.7671 14.0408 13.7704 13.1257Z" fill="#FAFCFE"/>
<path d="M11.2207 13.1422C11.2263 14.0295 10.5635 14.779 9.76516 14.7912C8.9312 14.8034 8.23511 14.0718 8.22288 13.1655C8.20954 12.2471 8.88338 11.4498 9.6762 11.4453C10.528 11.4398 11.2151 12.1948 11.2207 13.1422Z" fill="#FAFCFE"/>
</g>
<defs>
<clipPath id="clip0_105_5396">
<rect width="25" height="25" fill="white"/>
</clipPath>
</defs>
</svg>
