<svg width="79" height="28" viewBox="0 0 79 28" fill="none" xmlns="http://www.w3.org/2000/svg">
<path d="M6.4339 5.47845H0V1.7012H17.5212V5.47845H11.0873V21.7316H6.43425V5.47845H6.4339Z" fill="#FAFCFE"/>
<path d="M34.353 6.33673V21.7316H30.102V19.9003C29.5082 20.5683 28.7996 21.0786 27.9765 21.4314C27.1528 21.7842 26.2626 21.9606 25.3051 21.9606C23.2752 21.9606 21.6669 21.3791 20.4795 20.2151C19.2922 19.0518 18.6987 17.3251 18.6987 15.0357V6.33673H23.1796V14.3775C23.1796 16.8576 24.2231 18.0976 26.3105 18.0976C27.3827 18.0976 28.2442 17.7497 28.8955 17.0532C29.5463 16.357 29.8721 15.3219 29.8721 13.9484V6.33673H34.353Z" fill="#FAFCFE"/>
<path d="M49.6362 25.8094L45.0916 27.2432V6.26529H49.6362V25.8094Z" fill="#FAFCFE"/>
<path d="M42.4405 2.19066L37.8959 0.756805V21.7347H42.4405V2.19066Z" fill="#FAFCFE"/>
<path d="M53.6887 6.26529C49.359 6.26529 45.8491 9.7619 45.8491 14.0753C45.8491 18.3887 49.359 21.8853 53.6887 21.8853C58.0185 21.8853 61.5283 18.3887 61.5283 14.0753C61.5283 9.76225 58.0185 6.26529 53.6887 6.26529ZM53.6887 17.695C51.6822 17.695 50.0557 16.0746 50.0557 14.0757C50.0557 12.0767 51.6822 10.4563 53.6887 10.4563C55.6952 10.4563 57.3217 12.0767 57.3217 14.0757C57.3217 16.0743 55.6952 17.695 53.6887 17.695Z" fill="#FAFCFE"/>
<path d="M70.8072 6.26529C66.4775 6.26529 62.9677 9.7619 62.9677 14.0753C62.9677 18.3887 66.4775 21.8853 70.8072 21.8853C75.137 21.8853 78.6468 18.3887 78.6468 14.0753C78.6468 9.76225 75.137 6.26529 70.8072 6.26529ZM70.8142 17.695C68.8077 17.695 67.1812 16.0746 67.1812 14.0757C67.1812 12.0767 68.8077 10.4563 70.8142 10.4563C72.8208 10.4563 74.4473 12.0767 74.4473 14.0757C74.4473 16.0743 72.8208 17.695 70.8142 17.695Z" fill="#FAFCFE"/>
</svg>
