<svg width="407" height="77" viewBox="0 0 407 77" fill="none" xmlns="http://www.w3.org/2000/svg">
<path d="M138.421 42.1931H153.729C155.882 42.1931 157.626 43.9559 157.626 46.1084C157.626 48.2795 155.882 50.0238 153.729 50.0238H135.266C134.969 50.0238 134.691 50.1351 134.487 50.3207L128.92 55.1267C128.066 55.8689 128.586 57.2606 129.699 57.2606H152.801C152.801 57.2606 152.82 57.2606 152.82 57.2421C152.82 57.2235 152.839 57.2235 152.839 57.2235C153.135 57.2421 153.414 57.2606 153.711 57.2606C159.834 57.2606 164.807 52.269 164.807 46.1084C164.807 40.2633 160.335 35.4573 154.62 34.9934C154.62 34.9934 154.601 34.9934 154.601 34.9748C154.601 34.9563 154.601 34.9563 154.583 34.9563H138.105C135.953 34.9563 134.208 33.1935 134.208 31.041C134.208 28.8699 135.953 27.1256 138.105 27.1256H156.531C156.828 27.1256 157.125 27.0143 157.348 26.8102L162.525 22.0042C163.341 21.2434 162.803 19.8888 161.708 19.8888H138.421C138.328 19.8888 138.216 19.8888 138.124 19.8888C132 19.8888 127.027 24.8804 127.027 31.041C127.027 37.2016 132 42.1931 138.124 42.1931C138.216 42.1931 138.309 42.1931 138.421 42.1931Z" fill="white"/>
<path d="M227.526 19.8701C226.858 19.8701 226.32 20.4082 226.32 21.0948V56.0543C226.32 56.7224 226.858 57.279 227.526 57.279H255.546C255.88 57.279 256.195 57.1306 256.436 56.8894L259.943 53.1225C260.667 52.3431 260.129 51.0628 259.053 51.0628H234.596C233.928 51.0628 233.39 50.5247 233.39 49.8381V21.0763C233.39 20.4082 232.852 19.8516 232.184 19.8516H227.526V19.8701Z" fill="white"/>
<path fill-rule="evenodd" clip-rule="evenodd" d="M182.658 19.8702C182.658 19.8887 182.658 19.8887 182.658 19.8702C179.077 20.0372 176.2 22.9134 176.033 26.4947V50.0051C176.033 50.0979 176.033 50.2093 176.033 50.302C176.033 54.0318 178.965 57.075 182.658 57.2234H208.08C211.754 57.0564 214.704 54.0132 214.704 50.302C214.704 50.2093 214.704 50.0979 214.704 50.0051V26.5132C214.556 22.9319 211.68 20.0372 208.098 19.8887H182.658V19.8702ZM187.408 26.5132C187.39 26.5132 187.39 26.5132 187.408 26.5132C185.163 26.606 183.363 28.4245 183.27 30.6883V45.4775C183.27 45.5331 183.27 45.6074 183.27 45.663C183.27 48.0011 185.107 49.9309 187.408 50.0237H203.348C205.649 49.9309 207.486 48.0011 207.486 45.663C207.486 45.6074 207.486 45.5331 207.486 45.4775V30.6883C207.393 28.4245 205.593 26.6246 203.348 26.5132H187.408Z" fill="white"/>
<path fill-rule="evenodd" clip-rule="evenodd" d="M300.674 56.0544C300.674 56.7224 301.212 57.2791 301.88 57.2791H306.63C307.298 57.2791 307.837 56.741 307.837 56.0544V27.1256C307.837 27.0328 307.837 26.9215 307.837 26.8287C307.837 23.0989 304.923 20.0557 301.286 19.9073H276.885C276.792 19.9073 276.681 19.9073 276.588 19.9073C272.803 19.9073 269.741 23.0061 269.741 26.8472C269.741 26.94 269.741 27.0514 269.741 27.1441V56.073C269.741 56.741 270.279 57.2977 270.947 57.2977H275.698C276.366 57.2977 276.904 56.7595 276.904 56.073V44.0301C276.904 43.3621 277.442 42.8054 278.11 42.8054H299.523C300.192 42.8054 300.73 43.3435 300.73 44.0301V56.0544H300.674ZM276.867 36.1438V30.1317C276.867 27.7936 278.741 25.9009 281.042 25.9009H296.517C298.818 25.9009 300.693 27.7936 300.693 30.1317V36.1438C300.693 36.8118 300.154 37.3685 299.486 37.3685H278.073C277.405 37.3685 276.867 36.8304 276.867 36.1438Z" fill="white"/>
<path fill-rule="evenodd" clip-rule="evenodd" d="M400.969 57.2792C400.301 57.2792 399.763 56.741 399.763 56.0545V44.0116C399.763 43.3436 399.225 42.7869 398.557 42.7869H376.902C376.234 42.7869 375.696 43.325 375.696 44.0116V56.0545C375.696 56.7225 375.158 57.2792 374.49 57.2792H369.702C369.034 57.2792 368.496 56.741 368.496 56.0545V27.1256C368.496 27.0329 368.496 26.9215 368.496 26.8287C368.496 23.0062 371.595 19.8888 375.418 19.8888C375.511 19.8888 375.622 19.8888 375.715 19.8888H400.376C404.05 20.0558 407 23.099 407 26.8102C407 26.903 407 27.0143 407 27.1071V56.0359C407 56.7039 406.462 57.2606 405.794 57.2606H400.969V57.2792ZM375.696 30.1317V36.1439C375.696 36.8119 376.234 37.3686 376.902 37.3686H398.557C399.225 37.3686 399.763 36.8304 399.763 36.1439V30.1317C399.763 27.7937 397.871 25.9009 395.551 25.9009H379.908C377.57 25.9009 375.696 27.7937 375.696 30.1317Z" fill="white"/>
<path d="M325.725 19.8702C326.077 19.8702 326.411 20.0186 326.634 20.297L347.936 45.7001C348.66 46.5537 350.052 46.0342 350.052 44.9022V21.0949C350.052 20.4269 350.59 19.8702 351.258 19.8702H356.008C356.676 19.8702 357.214 20.4083 357.214 21.0949V56.0544C357.214 56.7224 356.676 57.2791 356.008 57.2791H350.107C350.089 57.2791 350.07 57.2605 350.07 57.242C350.07 57.2234 350.07 57.2234 350.052 57.2049L328.378 31.9873C327.655 31.1337 326.263 31.6718 326.263 32.7852V56.073C326.263 56.741 325.725 57.2977 325.057 57.2977H320.269C319.601 57.2977 319.063 56.7595 319.063 56.073V21.0949C319.063 20.4269 319.601 19.8702 320.269 19.8702H325.725Z" fill="white"/>
<path d="M16.563 58.5595C17.1568 57.9657 17.9547 57.6317 18.7897 57.6317H96.0755C97.4858 57.6317 98.1909 59.3389 97.1889 60.3223L81.9173 75.5939C81.3235 76.1877 80.5256 76.5217 79.6905 76.5217H2.40475C0.994492 76.5217 0.289363 74.8146 1.29139 73.8311L16.563 58.5595Z" fill="white"/>
<path d="M16.563 1.55536C17.1568 0.961572 17.9547 0.627563 18.7897 0.627563H96.0755C97.4857 0.627563 98.1909 2.33472 97.1889 3.31819L81.9172 18.5712C81.3235 19.165 80.5255 19.499 79.6905 19.499H2.40473C0.994477 19.499 0.289348 17.7919 1.29137 16.8084L16.563 1.55536Z" fill="white"/>
<path d="M81.9173 29.8719C81.3235 29.2781 80.5256 28.9441 79.6905 28.9441H2.40475C0.994492 28.9441 0.289363 30.6512 1.29139 31.6347L16.563 46.8878C17.1568 47.4815 17.9547 47.8156 18.7897 47.8156H96.0755C97.4858 47.8156 98.1909 46.1084 97.1889 45.1249L81.9173 29.8719Z" fill="white"/>
</svg>
