<svg width="1053" height="503" viewBox="0 0 1053 503" fill="none" xmlns="http://www.w3.org/2000/svg">
<path d="M1 16C1 7.71573 7.71573 1 16 1H440V502H16C7.71572 502 1 495.284 1 487V16Z" fill="#0D0E1F"/>
<path d="M61.7911 68.74C63.1111 68.74 64.5991 68.524 66.5431 67.876V64.708C64.3831 65.596 62.9911 65.836 61.8151 65.836C57.9991 65.836 55.7431 63.244 55.7431 60.124C55.7431 56.98 57.9991 54.34 61.8151 54.34C62.9911 54.34 64.3831 54.58 66.5431 55.492V52.324C64.5991 51.676 63.1111 51.46 61.7911 51.46C56.1031 51.46 52.3831 55.324 52.3831 60.124C52.3831 64.9 56.1031 68.74 61.7911 68.74ZM77.3585 51.46C72.3905 51.46 68.8625 55.18 68.8625 60.124C68.8625 65.044 72.3905 68.74 77.3585 68.74C82.3505 68.74 85.8785 65.044 85.8785 60.124C85.8785 55.18 82.3505 51.46 77.3585 51.46ZM82.5185 60.124C82.5185 63.364 80.5505 65.812 77.3585 65.812C74.1665 65.812 72.2225 63.364 72.2225 60.124C72.2225 56.836 74.1665 54.388 77.3585 54.388C80.5505 54.388 82.5185 56.836 82.5185 60.124ZM103.493 51.7L98.6452 63.748L93.7732 51.7H88.7332V68.5H91.9732V54.796L97.4932 68.5H99.7732L105.293 54.82V68.5H108.557V51.7H103.493ZM119.591 51.7H112.103V68.5H115.367V62.14H119.591C123.143 62.14 125.591 59.86 125.591 56.908C125.591 53.98 123.143 51.7 119.591 51.7ZM119.423 59.548H115.367V54.436H119.423C121.223 54.436 122.423 55.564 122.423 56.932C122.423 58.372 121.223 59.548 119.423 59.548ZM139.214 68.5H142.718L136.286 51.7H131.918L125.462 68.5H128.99L130.382 64.66H137.822L139.214 68.5ZM131.294 62.14L134.102 54.412L136.91 62.14H131.294ZM157.18 51.7V63.82L148.996 51.7H145.132V68.5H148.348V56.236L156.532 68.5H160.396V51.7H157.18ZM174.395 51.7L170.651 59.188L166.883 51.7H162.803L169.019 62.5V68.5H172.283V62.5L178.451 51.7H174.395ZM198.756 68.5H202.26L195.828 51.7H191.46L185.004 68.5H188.532L189.924 64.66H197.364L198.756 68.5ZM190.836 62.14L193.644 54.412L196.452 62.14H190.836ZM211.179 51.7H204.675V68.5H211.179C216.267 68.5 220.107 64.972 220.107 60.1C220.107 55.252 216.267 51.7 211.179 51.7ZM211.227 65.596H207.939V54.58H211.227C214.467 54.58 216.795 56.932 216.795 60.1C216.795 63.292 214.491 65.596 211.227 65.596ZM233.557 51.7L229.261 65.332L224.941 51.7H221.221L227.077 68.5H231.445L237.277 51.7H233.557ZM250.491 68.5H253.995L247.563 51.7H243.195L236.739 68.5H240.267L241.659 64.66H249.099L250.491 68.5ZM242.571 62.14L245.379 54.412L248.187 62.14H242.571ZM268.458 51.7V63.82L260.274 51.7H256.41V68.5H259.626V56.236L267.81 68.5H271.674V51.7H268.458ZM288.289 51.7H274.297V54.556H279.601V68.5H282.913V54.556H288.289V51.7ZM301.711 68.5H305.215L298.783 51.7H294.415L287.959 68.5H291.487L292.879 64.66H300.319L301.711 68.5ZM293.791 62.14L296.599 54.412L299.407 62.14H293.791ZM315.008 58.828V61.516H319.04V65.332C317.792 65.74 316.928 65.836 315.896 65.836C312.08 65.836 309.824 63.22 309.824 60.1C309.824 56.956 312.08 54.34 315.896 54.34C317.072 54.34 318.704 54.58 320.864 55.492V52.324C318.92 51.676 317.192 51.46 315.872 51.46C310.184 51.46 306.464 55.3 306.464 60.1C306.464 64.876 310.16 68.74 316.064 68.74C317.672 68.74 319.184 68.572 322.04 67.372V58.828H315.008ZM337.326 54.484V51.7H325.398V68.5H337.326V65.692H328.614V61.084H336.966V58.468H328.614V54.484H337.326ZM346.582 68.74C350.398 68.74 352.63 66.412 352.63 63.508C352.63 57.508 343.99 59.524 343.99 56.116C343.99 54.964 344.998 54.148 346.702 54.148C348.142 54.148 349.99 54.676 352.006 55.684V52.252C350.206 51.724 348.214 51.46 346.702 51.46C342.91 51.46 340.39 53.38 340.39 56.332C340.39 62.116 349.054 60.196 349.054 63.892C349.054 65.14 348.022 66.004 346.39 66.004C344.614 66.004 342.262 65.044 340.294 63.748V67.372C342.622 68.404 345.046 68.74 346.582 68.74Z" fill="white"/>
<path d="M63.1732 180.5H67.2772L62.4052 173.948C65.0212 173.348 66.7012 171.356 66.7012 168.908C66.7012 165.98 64.2532 163.7 60.7012 163.7H53.2132V180.5H56.4772V174.14H59.0932L63.1732 180.5ZM56.4772 166.436H60.5332C62.3332 166.436 63.5332 167.564 63.5332 168.932C63.5332 170.372 62.3332 171.548 60.5332 171.548H56.4772V166.436ZM80.2638 174.068C80.2638 170.324 77.9118 168.02 74.5038 168.02C70.9998 168.02 68.3598 170.42 68.3598 174.14C68.3598 178.292 70.8798 180.74 75.2238 180.74C76.1838 180.74 77.6958 180.596 79.5438 180.044V177.356C77.6478 178.076 76.5198 178.292 75.4878 178.292C73.0638 178.292 71.7918 177.38 71.5038 175.196H80.2638V174.068ZM74.5278 170.276C76.1838 170.276 77.1198 171.38 77.3598 173.156H71.5038C71.7678 171.332 72.8478 170.276 74.5278 170.276ZM90.4964 168.26H86.8484V167.948C86.8484 166.652 87.7364 165.812 89.1044 165.812C89.4404 165.812 89.7764 165.836 90.4724 165.98V163.604C89.6804 163.508 89.1044 163.46 88.6004 163.46C85.6964 163.46 83.6564 165.236 83.6564 167.828V168.26H81.8564V170.756H83.6564V180.5H86.8484V170.756H90.4964V168.26ZM100.421 168.26V176.084C99.5572 177.14 98.7412 177.836 97.6372 177.836C96.5092 177.836 95.4772 177.044 95.4772 175.556V168.26H92.2612V176.06C92.2612 179.108 94.2052 180.74 96.4372 180.74C98.3092 180.74 99.4612 179.708 100.421 178.22V180.5H103.613V168.26H100.421ZM113.927 168.02C112.199 168.02 110.975 168.908 109.967 170.252V168.26H106.751V180.5H109.967V172.652C110.855 171.596 111.767 170.924 112.871 170.924C113.999 170.924 114.911 171.572 114.911 173.06V180.5H118.103V172.34C118.103 169.532 116.255 168.02 113.927 168.02ZM129.928 163.7V169.916C128.944 168.692 127.6 168.02 126.016 168.02C122.704 168.02 120.496 170.732 120.496 174.38C120.496 178.004 122.68 180.74 126.016 180.74C127.6 180.74 128.944 180.068 129.928 178.844V180.5H133.12V163.7H129.928ZM127.024 178.052C125.056 178.052 123.664 176.492 123.664 174.38C123.664 172.268 125.008 170.708 126.976 170.708C128.176 170.708 129.184 171.404 129.928 172.436V176.324C129.232 177.332 128.248 178.052 127.024 178.052Z" fill="white"/>
<path d="M63.1683 269.5H67.2723L62.4003 262.948C65.0163 262.348 66.6963 260.356 66.6963 257.908C66.6963 254.98 64.2483 252.7 60.6963 252.7H53.2083V269.5H56.4723V263.14H59.0883L63.1683 269.5ZM56.4723 255.436H60.5283C62.3283 255.436 63.5283 256.564 63.5283 257.932C63.5283 259.372 62.3283 260.548 60.5283 260.548H56.4723V255.436ZM74.9309 269.74C78.6749 269.74 81.5069 266.98 81.5069 263.308C81.5069 259.708 78.6749 257.02 74.9309 257.02C71.1869 257.02 68.3549 259.708 68.3549 263.308C68.3549 266.98 71.1869 269.74 74.9309 269.74ZM74.9309 267.1C72.9869 267.1 71.5469 265.54 71.5469 263.356C71.5469 261.196 72.9869 259.66 74.9309 259.66C76.8749 259.66 78.3389 261.196 78.3389 263.356C78.3389 265.54 76.8749 267.1 74.9309 267.1ZM83.8858 269.5H87.0778V252.7H83.8858V269.5ZM89.9823 269.5H93.1743V252.7H89.9823V269.5ZM98.0469 255.316C99.1509 255.316 100.015 254.452 100.015 253.348C100.015 252.244 99.1509 251.428 98.0469 251.428C96.9189 251.428 96.0789 252.244 96.0789 253.348C96.0789 254.452 96.9189 255.316 98.0469 255.316ZM96.4389 269.5H99.6309V257.26H96.4389V269.5ZM110.198 257.02C108.47 257.02 107.246 257.908 106.238 259.252V257.26H103.022V269.5H106.238V261.652C107.126 260.596 108.038 259.924 109.142 259.924C110.27 259.924 111.182 260.572 111.182 262.06V269.5H114.374V261.34C114.374 258.532 112.526 257.02 110.198 257.02ZM126.151 257.26V259.084C125.287 257.788 124.015 257.02 122.239 257.02C119.047 257.02 116.767 259.564 116.767 262.924C116.767 266.284 119.047 268.852 122.215 268.852C124.039 268.852 125.311 268.084 126.151 266.788V268.492C126.151 270.34 124.639 271.42 122.503 271.42C121.183 271.42 119.815 270.964 117.679 269.788V272.716C119.407 273.532 121.063 273.82 122.551 273.82C126.535 273.82 129.343 271.564 129.343 268.684V257.26H126.151ZM123.223 266.308C121.351 266.308 119.935 264.844 119.935 262.9C119.935 261.004 121.351 259.588 123.199 259.588C124.471 259.588 125.551 260.308 126.151 261.484V264.388C125.551 265.564 124.495 266.308 123.223 266.308ZM147.941 269.5H152.045L147.173 262.948C149.789 262.348 151.469 260.356 151.469 257.908C151.469 254.98 149.021 252.7 145.469 252.7H137.981V269.5H141.245V263.14H143.861L147.941 269.5ZM141.245 255.436H145.301C147.101 255.436 148.301 256.564 148.301 257.932C148.301 259.372 147.101 260.548 145.301 260.548H141.245V255.436ZM165.031 263.068C165.031 259.324 162.679 257.02 159.271 257.02C155.767 257.02 153.127 259.42 153.127 263.14C153.127 267.292 155.647 269.74 159.991 269.74C160.951 269.74 162.463 269.596 164.311 269.044V266.356C162.415 267.076 161.287 267.292 160.255 267.292C157.831 267.292 156.559 266.38 156.271 264.196H165.031V263.068ZM159.295 259.276C160.951 259.276 161.887 260.38 162.127 262.156H156.271C156.535 260.332 157.615 259.276 159.295 259.276ZM171.928 269.74C175 269.74 176.608 268.036 176.608 265.804C176.608 261.268 170.08 262.708 170.08 260.452C170.08 259.684 170.728 259.228 171.928 259.228C173.08 259.228 174.712 259.684 176.032 260.404L176.056 257.62C174.832 257.212 173.032 257.02 171.952 257.02C168.904 257.02 166.912 258.436 166.912 260.764C166.912 265.036 173.44 263.74 173.44 266.164C173.44 266.956 172.792 267.412 171.544 267.412C170.056 267.412 168.472 266.62 166.912 265.708V268.708C168.808 269.5 170.776 269.74 171.928 269.74ZM190.35 263.068C190.35 259.324 187.998 257.02 184.59 257.02C181.086 257.02 178.446 259.42 178.446 263.14C178.446 267.292 180.966 269.74 185.31 269.74C186.27 269.74 187.782 269.596 189.63 269.044V266.356C187.734 267.076 186.606 267.292 185.574 267.292C183.15 267.292 181.878 266.38 181.59 264.196H190.35V263.068ZM184.614 259.276C186.27 259.276 187.206 260.38 187.446 262.156H181.59C181.854 260.332 182.934 259.276 184.614 259.276ZM196.094 259.924V257.26H192.854V269.5H196.094V261.7C197.006 260.668 198.47 260.332 200.798 260.332V257.02C197.99 257.02 196.766 258.508 196.094 259.924ZM211.284 257.26L208.38 266.692L205.524 257.26H201.948L206.484 269.5H210.324L214.86 257.26H211.284ZM227.647 263.068C227.647 259.324 225.295 257.02 221.887 257.02C218.383 257.02 215.743 259.42 215.743 263.14C215.743 267.292 218.263 269.74 222.607 269.74C223.567 269.74 225.079 269.596 226.927 269.044V266.356C225.031 267.076 223.903 267.292 222.871 267.292C220.447 267.292 219.175 266.38 218.887 264.196H227.647V263.068ZM221.911 259.276C223.567 259.276 224.503 260.38 224.743 262.156H218.887C219.151 260.332 220.231 259.276 221.911 259.276Z" fill="white"/>
<path d="M64.8979 344.556V341.7H52.9699V358.5H56.2339V351.3H64.2979V348.564H56.2339V344.556H64.8979ZM78.5674 352.068C78.5674 348.324 76.2154 346.02 72.8074 346.02C69.3034 346.02 66.6634 348.42 66.6634 352.14C66.6634 356.292 69.1834 358.74 73.5274 358.74C74.4874 358.74 75.9994 358.596 77.8474 358.044V355.356C75.9514 356.076 74.8234 356.292 73.7914 356.292C71.3674 356.292 70.0954 355.38 69.8074 353.196H78.5674V352.068ZM72.8314 348.276C74.4874 348.276 75.4234 349.38 75.6634 351.156H69.8074C70.0714 349.332 71.1514 348.276 72.8314 348.276ZM92.328 352.068C92.328 348.324 89.976 346.02 86.568 346.02C83.064 346.02 80.424 348.42 80.424 352.14C80.424 356.292 82.944 358.74 87.288 358.74C88.248 358.74 89.76 358.596 91.608 358.044V355.356C89.712 356.076 88.584 356.292 87.552 356.292C85.128 356.292 83.856 355.38 83.568 353.196H92.328V352.068ZM86.592 348.276C88.248 348.276 89.184 349.38 89.424 351.156H83.568C83.832 349.332 84.912 348.276 86.592 348.276ZM99.2246 358.74C102.297 358.74 103.905 357.036 103.905 354.804C103.905 350.268 97.3766 351.708 97.3766 349.452C97.3766 348.684 98.0246 348.228 99.2246 348.228C100.377 348.228 102.009 348.684 103.329 349.404L103.353 346.62C102.129 346.212 100.329 346.02 99.2486 346.02C96.2006 346.02 94.2086 347.436 94.2086 349.764C94.2086 354.036 100.737 352.74 100.737 355.164C100.737 355.956 100.089 356.412 98.8406 356.412C97.3526 356.412 95.7686 355.62 94.2086 354.708V357.708C96.1046 358.5 98.0726 358.74 99.2246 358.74Z" fill="white"/>
<path d="M66.0896 430.7H52.0976V433.556H57.4016V447.5H60.7136V433.556H66.0896V430.7ZM70.5448 437.924V435.26H67.3048V447.5H70.5448V439.7C71.4568 438.668 72.9208 438.332 75.2488 438.332V435.02C72.4408 435.02 71.2168 436.508 70.5448 437.924ZM81.933 435.02C81.141 435.02 79.485 435.068 77.421 435.692V438.62C79.245 437.588 80.469 437.468 81.165 437.468C83.109 437.468 83.997 438.452 83.997 439.964V441.188C83.061 440.132 81.885 439.724 80.565 439.724C77.973 439.724 76.125 441.452 76.125 443.732C76.125 446.012 77.949 447.74 80.517 447.74C81.909 447.74 83.109 447.164 83.997 446.06V447.5H87.189V439.844C87.189 436.748 85.197 435.02 81.933 435.02ZM81.501 445.676C80.229 445.676 79.269 444.836 79.269 443.732C79.269 442.628 80.229 441.788 81.525 441.788C82.317 441.788 83.157 442.076 83.997 443.156V444.308C83.157 445.364 82.317 445.676 81.501 445.676ZM97.4083 435.02C95.6803 435.02 94.4563 435.908 93.4483 437.252V435.26H90.2323V447.5H93.4483V439.652C94.3363 438.596 95.2483 437.924 96.3523 437.924C97.4803 437.924 98.3923 438.572 98.3923 440.06V447.5H101.584V439.34C101.584 436.532 99.7363 435.02 97.4083 435.02ZM109.018 447.74C112.09 447.74 113.698 446.036 113.698 443.804C113.698 439.268 107.17 440.708 107.17 438.452C107.17 437.684 107.818 437.228 109.018 437.228C110.17 437.228 111.802 437.684 113.122 438.404L113.146 435.62C111.922 435.212 110.122 435.02 109.042 435.02C105.994 435.02 104.002 436.436 104.002 438.764C104.002 443.036 110.53 441.74 110.53 444.164C110.53 444.956 109.882 445.412 108.634 445.412C107.146 445.412 105.562 444.62 104.002 443.708V446.708C105.898 447.5 107.866 447.74 109.018 447.74ZM121.199 435.02C120.407 435.02 118.751 435.068 116.687 435.692V438.62C118.511 437.588 119.735 437.468 120.431 437.468C122.375 437.468 123.263 438.452 123.263 439.964V441.188C122.327 440.132 121.151 439.724 119.831 439.724C117.239 439.724 115.391 441.452 115.391 443.732C115.391 446.012 117.215 447.74 119.783 447.74C121.175 447.74 122.375 447.164 123.263 446.06V447.5H126.455V439.844C126.455 436.748 124.463 435.02 121.199 435.02ZM120.767 445.676C119.495 445.676 118.535 444.836 118.535 443.732C118.535 442.628 119.495 441.788 120.791 441.788C121.583 441.788 122.423 442.076 123.263 443.156V444.308C122.423 445.364 121.583 445.676 120.767 445.676ZM135.667 447.74C136.579 447.74 137.755 447.62 138.955 447.26V444.356C137.755 444.788 136.987 445.052 135.811 445.052C133.627 445.052 132.019 443.444 132.019 441.356C132.019 439.268 133.627 437.708 135.811 437.708C136.987 437.708 137.755 437.948 138.955 438.38V435.428C137.755 435.164 136.579 435.02 135.619 435.02C131.755 435.02 128.851 437.588 128.851 441.356C128.851 445.172 131.779 447.74 135.667 447.74ZM149.368 437.756V435.26H145.768V431.996H142.576V435.26H140.824V437.756H142.576V443.444C142.576 446.084 144.16 447.74 146.92 447.74C147.712 447.74 148.264 447.716 149.08 447.524V444.74C148.12 444.956 147.712 444.98 147.4 444.98C146.272 444.98 145.768 444.308 145.768 442.988V437.756H149.368ZM153.337 433.316C154.441 433.316 155.305 432.452 155.305 431.348C155.305 430.244 154.441 429.428 153.337 429.428C152.209 429.428 151.369 430.244 151.369 431.348C151.369 432.452 152.209 433.316 153.337 433.316ZM151.729 447.5H154.921V435.26H151.729V447.5ZM164.24 447.74C167.984 447.74 170.816 444.98 170.816 441.308C170.816 437.708 167.984 435.02 164.24 435.02C160.496 435.02 157.664 437.708 157.664 441.308C157.664 444.98 160.496 447.74 164.24 447.74ZM164.24 445.1C162.296 445.1 160.856 443.54 160.856 441.356C160.856 439.196 162.296 437.66 164.24 437.66C166.184 437.66 167.648 439.196 167.648 441.356C167.648 443.54 166.184 445.1 164.24 445.1ZM180.49 435.02C178.762 435.02 177.538 435.908 176.53 437.252V435.26H173.314V447.5H176.53V439.652C177.418 438.596 178.33 437.924 179.434 437.924C180.562 437.924 181.474 438.572 181.474 440.06V447.5H184.666V439.34C184.666 436.532 182.818 435.02 180.49 435.02ZM198.936 447.74C202.752 447.74 204.984 445.412 204.984 442.508C204.984 436.508 196.344 438.524 196.344 435.116C196.344 433.964 197.352 433.148 199.056 433.148C200.496 433.148 202.344 433.676 204.36 434.684V431.252C202.56 430.724 200.568 430.46 199.056 430.46C195.264 430.46 192.744 432.38 192.744 435.332C192.744 441.116 201.408 439.196 201.408 442.892C201.408 444.14 200.376 445.004 198.744 445.004C196.968 445.004 194.616 444.044 192.648 442.748V446.372C194.976 447.404 197.4 447.74 198.936 447.74ZM214.811 435.02C213.203 435.02 211.835 435.716 210.851 436.988V435.26H207.635V451.58H210.851V445.796C211.835 447.068 213.203 447.74 214.811 447.74C218.147 447.74 220.331 445.004 220.331 441.38C220.331 437.732 218.123 435.02 214.811 435.02ZM213.803 445.052C212.555 445.052 211.571 444.308 210.851 443.252V439.484C211.595 438.428 212.627 437.708 213.851 437.708C215.819 437.708 217.163 439.268 217.163 441.38C217.163 443.492 215.771 445.052 213.803 445.052ZM234.058 441.068C234.058 437.324 231.706 435.02 228.298 435.02C224.794 435.02 222.154 437.42 222.154 441.14C222.154 445.292 224.674 447.74 229.018 447.74C229.978 447.74 231.49 447.596 233.338 447.044V444.356C231.442 445.076 230.314 445.292 229.282 445.292C226.858 445.292 225.586 444.38 225.298 442.196H234.058V441.068ZM228.322 437.276C229.978 437.276 230.914 438.38 231.154 440.156H225.298C225.562 438.332 226.642 437.276 228.322 437.276ZM247.819 441.068C247.819 437.324 245.467 435.02 242.059 435.02C238.555 435.02 235.915 437.42 235.915 441.14C235.915 445.292 238.435 447.74 242.779 447.74C243.739 447.74 245.251 447.596 247.099 447.044V444.356C245.203 445.076 244.075 445.292 243.043 445.292C240.619 445.292 239.347 444.38 239.059 442.196H247.819V441.068ZM242.083 437.276C243.739 437.276 244.675 438.38 244.915 440.156H239.059C239.323 438.332 240.403 437.276 242.083 437.276ZM259.108 430.7V436.916C258.124 435.692 256.78 435.02 255.196 435.02C251.884 435.02 249.676 437.732 249.676 441.38C249.676 445.004 251.86 447.74 255.196 447.74C256.78 447.74 258.124 447.068 259.108 445.844V447.5H262.3V430.7H259.108ZM256.204 445.052C254.236 445.052 252.844 443.492 252.844 441.38C252.844 439.268 254.188 437.708 256.156 437.708C257.356 437.708 258.364 438.404 259.108 439.436V443.324C258.412 444.332 257.428 445.052 256.204 445.052Z" fill="white"/>
<rect width="306" height="501" transform="translate(440 1)" fill="#1C1B2D"/>
<path d="M553.581 68.74C554.901 68.74 556.389 68.524 558.333 67.876V64.708C556.173 65.596 554.781 65.836 553.605 65.836C549.789 65.836 547.533 63.244 547.533 60.124C547.533 56.98 549.789 54.34 553.605 54.34C554.781 54.34 556.173 54.58 558.333 55.492V52.324C556.389 51.676 554.901 51.46 553.581 51.46C547.893 51.46 544.173 55.324 544.173 60.124C544.173 64.9 547.893 68.74 553.581 68.74ZM571.66 68.5H575.764L570.892 61.948C573.508 61.348 575.188 59.356 575.188 56.908C575.188 53.98 572.74 51.7 569.188 51.7H561.7V68.5H564.964V62.14H567.58L571.66 68.5ZM564.964 54.436H569.02C570.82 54.436 572.02 55.564 572.02 56.932C572.02 58.372 570.82 59.548 569.02 59.548H564.964V54.436ZM587.753 51.7L584.009 59.188L580.241 51.7H576.161L582.377 62.5V68.5H585.641V62.5L591.809 51.7H587.753ZM601.725 51.7H594.237V68.5H597.501V62.14H601.725C605.277 62.14 607.725 59.86 607.725 56.908C607.725 53.98 605.277 51.7 601.725 51.7ZM601.557 59.548H597.501V54.436H601.557C603.357 54.436 604.557 55.564 604.557 56.932C604.557 58.372 603.357 59.548 601.557 59.548ZM623.374 51.7H609.382V54.556H614.686V68.5H617.998V54.556H623.374V51.7ZM633.332 51.46C628.364 51.46 624.836 55.18 624.836 60.124C624.836 65.044 628.364 68.74 633.332 68.74C638.324 68.74 641.852 65.044 641.852 60.124C641.852 55.18 638.324 51.46 633.332 51.46ZM638.492 60.124C638.492 63.364 636.524 65.812 633.332 65.812C630.14 65.812 628.196 63.364 628.196 60.124C628.196 56.836 630.14 54.388 633.332 54.388C636.524 54.388 638.492 56.836 638.492 60.124Z" fill="white"/>
<path d="M589.923 163.7V175.82L581.739 163.7H577.875V180.5H581.091V168.236L589.275 180.5H593.139V163.7H589.923ZM602.41 180.74C606.154 180.74 608.986 177.98 608.986 174.308C608.986 170.708 606.154 168.02 602.41 168.02C598.666 168.02 595.834 170.708 595.834 174.308C595.834 177.98 598.666 180.74 602.41 180.74ZM602.41 178.1C600.466 178.1 599.026 176.54 599.026 174.356C599.026 172.196 600.466 170.66 602.41 170.66C604.354 170.66 605.818 172.196 605.818 174.356C605.818 176.54 604.354 178.1 602.41 178.1Z" fill="white"/>
<path d="M589.923 252.7V264.82L581.739 252.7H577.875V269.5H581.091V257.236L589.275 269.5H593.139V252.7H589.923ZM602.41 269.74C606.154 269.74 608.986 266.98 608.986 263.308C608.986 259.708 606.154 257.02 602.41 257.02C598.666 257.02 595.834 259.708 595.834 263.308C595.834 266.98 598.666 269.74 602.41 269.74ZM602.41 267.1C600.466 267.1 599.026 265.54 599.026 263.356C599.026 261.196 600.466 259.66 602.41 259.66C604.354 259.66 605.818 261.196 605.818 263.356C605.818 265.54 604.354 267.1 602.41 267.1Z" fill="white"/>
<path d="M584.669 341.46L577.181 343.836V347.124L581.381 345.036V358.5H584.789V341.46H584.669ZM592.294 350.148C594.982 350.148 597.022 348.228 597.022 345.66C597.022 343.116 595.006 341.22 592.318 341.22C589.63 341.22 587.614 343.14 587.614 345.684C587.614 348.228 589.63 350.148 592.294 350.148ZM601.966 341.7L597.478 349.5L591.79 358.5H594.214L599.47 349.5L604.39 341.7H601.966ZM592.318 348.108C591.022 348.108 590.062 347.052 590.062 345.612C590.062 344.268 591.022 343.284 592.294 343.284C593.614 343.284 594.574 344.292 594.574 345.684C594.574 347.076 593.614 348.108 592.318 348.108ZM604.078 358.74C606.766 358.74 608.806 356.82 608.806 354.252C608.806 351.708 606.79 349.812 604.102 349.812C601.414 349.812 599.398 351.732 599.398 354.276C599.398 356.82 601.414 358.74 604.078 358.74ZM604.102 356.7C602.806 356.7 601.846 355.644 601.846 354.204C601.846 352.86 602.806 351.876 604.078 351.876C605.398 351.876 606.358 352.884 606.358 354.276C606.358 355.668 605.398 356.7 604.102 356.7Z" fill="white"/>
<path d="M560.614 432.644L549.526 437.468V440.612L560.614 445.46V442.436L552.142 439.052L560.614 435.692V432.644ZM571.141 430.46L563.653 432.836V436.124L567.853 434.036V447.5H571.261V430.46H571.141ZM581.647 430.46C577.231 430.46 574.471 433.772 574.471 439.1C574.471 444.428 577.231 447.74 581.647 447.74C586.063 447.74 588.823 444.428 588.823 439.1C588.823 433.772 586.063 430.46 581.647 430.46ZM581.623 444.884C579.271 444.884 577.855 442.652 577.855 439.1C577.855 435.524 579.271 433.316 581.623 433.316C584.023 433.316 585.439 435.524 585.463 439.1C585.439 442.652 584.023 444.884 581.623 444.884ZM611.873 435.02C609.929 435.02 608.681 436.052 607.673 437.588C607.145 435.956 605.825 435.02 603.953 435.02C602.105 435.02 600.905 435.956 599.969 437.324V435.26H596.753V447.5H599.969V439.724C600.833 438.5 601.601 437.924 602.657 437.924C603.905 437.924 604.673 438.74 604.673 440.156V447.5H607.889V439.676C608.777 438.572 609.497 437.924 610.601 437.924C611.825 437.924 612.593 438.74 612.593 440.156V447.5H615.809V439.196C615.809 436.604 614.297 435.02 611.873 435.02ZM620.705 433.316C621.809 433.316 622.673 432.452 622.673 431.348C622.673 430.244 621.809 429.428 620.705 429.428C619.577 429.428 618.737 430.244 618.737 431.348C618.737 432.452 619.577 433.316 620.705 433.316ZM619.097 447.5H622.289V435.26H619.097V447.5ZM632.857 435.02C631.129 435.02 629.905 435.908 628.897 437.252V435.26H625.681V447.5H628.897V439.652C629.785 438.596 630.697 437.924 631.801 437.924C632.929 437.924 633.841 438.572 633.841 440.06V447.5H637.033V439.34C637.033 436.532 635.185 435.02 632.857 435.02Z" fill="white"/>
<path d="M746 1H1037C1045.28 1 1052 7.71573 1052 16V487C1052 495.284 1045.28 502 1037 502H746V1Z" fill="#0D0E1F"/>
<path d="M885.535 54.556V51.7H873.607V68.5H876.871V61.3H884.935V58.564H876.871V54.556H885.535ZM888.636 51.7V68.5H891.9V51.7H888.636ZM908.173 68.5H911.677L905.245 51.7H900.877L894.421 68.5H897.949L899.341 64.66H906.781L908.173 68.5ZM900.253 62.14L903.061 54.412L905.869 62.14H900.253ZM925.343 51.7H911.351V54.556H916.655V68.5H919.967V54.556H925.343V51.7Z" fill="white"/>
<path d="M891.607 163.7L887.863 171.188L884.095 163.7H880.015L886.231 174.5V180.5H889.495V174.5L895.663 163.7H891.607ZM906.131 174.068C906.131 170.324 903.779 168.02 900.371 168.02C896.867 168.02 894.227 170.42 894.227 174.14C894.227 178.292 896.747 180.74 901.091 180.74C902.051 180.74 903.563 180.596 905.411 180.044V177.356C903.515 178.076 902.387 178.292 901.355 178.292C898.931 178.292 897.659 177.38 897.371 175.196H906.131V174.068ZM900.395 170.276C902.051 170.276 902.987 171.38 903.227 173.156H897.371C897.635 171.332 898.715 170.276 900.395 170.276ZM913.028 180.74C916.1 180.74 917.708 179.036 917.708 176.804C917.708 172.268 911.18 173.708 911.18 171.452C911.18 170.684 911.828 170.228 913.028 170.228C914.18 170.228 915.812 170.684 917.132 171.404L917.156 168.62C915.932 168.212 914.132 168.02 913.052 168.02C910.004 168.02 908.012 169.436 908.012 171.764C908.012 176.036 914.54 174.74 914.54 177.164C914.54 177.956 913.892 178.412 912.644 178.412C911.156 178.412 909.572 177.62 908.012 176.708V179.708C909.908 180.5 911.876 180.74 913.028 180.74Z" fill="white"/>
<path d="M891.607 252.7L887.863 260.188L884.095 252.7H880.015L886.231 263.5V269.5H889.495V263.5L895.663 252.7H891.607ZM906.131 263.068C906.131 259.324 903.779 257.02 900.371 257.02C896.867 257.02 894.227 259.42 894.227 263.14C894.227 267.292 896.747 269.74 901.091 269.74C902.051 269.74 903.563 269.596 905.411 269.044V266.356C903.515 267.076 902.387 267.292 901.355 267.292C898.931 267.292 897.659 266.38 897.371 264.196H906.131V263.068ZM900.395 259.276C902.051 259.276 902.987 260.38 903.227 262.156H897.371C897.635 260.332 898.715 259.276 900.395 259.276ZM913.028 269.74C916.1 269.74 917.708 268.036 917.708 265.804C917.708 261.268 911.18 262.708 911.18 260.452C911.18 259.684 911.828 259.228 913.028 259.228C914.18 259.228 915.812 259.684 917.132 260.404L917.156 257.62C915.932 257.212 914.132 257.02 913.052 257.02C910.004 257.02 908.012 258.436 908.012 260.764C908.012 265.036 914.54 263.74 914.54 266.164C914.54 266.956 913.892 267.412 912.644 267.412C911.156 267.412 909.572 266.62 908.012 265.708V268.708C909.908 269.5 911.876 269.74 913.028 269.74Z" fill="white"/>
<path d="M875.274 343.644V346.692L883.746 350.052L875.274 353.436V356.46L886.362 351.612V348.468L875.274 343.644ZM894.945 347.604H893.265L893.361 344.46H900.873V341.7H890.625L890.145 350.172H894.153C896.769 350.172 898.161 351.444 898.161 353.076C898.161 354.66 896.817 355.884 894.921 355.884C893.553 355.884 891.801 355.428 889.761 354.588V357.828C891.633 358.452 893.577 358.74 894.969 358.74C898.881 358.74 901.497 356.436 901.497 353.076C901.497 349.836 898.905 347.604 894.945 347.604ZM907.928 350.148C910.616 350.148 912.656 348.228 912.656 345.66C912.656 343.116 910.64 341.22 907.952 341.22C905.264 341.22 903.248 343.14 903.248 345.684C903.248 348.228 905.264 350.148 907.928 350.148ZM917.6 341.7L913.112 349.5L907.424 358.5H909.848L915.104 349.5L920.024 341.7H917.6ZM907.952 348.108C906.656 348.108 905.696 347.052 905.696 345.612C905.696 344.268 906.656 343.284 907.928 343.284C909.248 343.284 910.208 344.292 910.208 345.684C910.208 347.076 909.248 348.108 907.952 348.108ZM919.712 358.74C922.4 358.74 924.44 356.82 924.44 354.252C924.44 351.708 922.424 349.812 919.736 349.812C917.048 349.812 915.032 351.732 915.032 354.276C915.032 356.82 917.048 358.74 919.712 358.74ZM919.736 356.7C918.44 356.7 917.48 355.644 917.48 354.204C917.48 352.86 918.44 351.876 919.712 351.876C921.032 351.876 921.992 352.884 921.992 354.276C921.992 355.668 921.032 356.7 919.736 356.7Z" fill="white"/>
<path d="M853.613 432.644V435.692L862.085 439.052L853.613 442.436V445.46L864.701 440.612V437.468L853.613 432.644ZM875.132 436.772C873.5 436.772 872.012 437.42 871.004 438.62C871.436 435.404 873.212 433.316 876.5 433.316C877.532 433.316 878.3 433.46 879.476 433.916V430.844C878.684 430.676 877.724 430.46 876.428 430.46C871.268 430.46 867.812 434.324 867.812 439.796C867.812 442.796 868.82 444.956 870.164 446.18C871.34 447.26 872.972 447.74 874.484 447.74C877.94 447.74 880.556 445.364 880.556 442.124C880.556 439.004 878.204 436.772 875.132 436.772ZM874.412 445.148C872.54 445.148 871.244 443.732 870.956 441.308C871.868 439.82 873.212 439.196 874.46 439.196C876.14 439.196 877.34 440.444 877.34 442.172C877.34 443.948 876.092 445.148 874.412 445.148ZM889.92 430.46C885.504 430.46 882.744 433.772 882.744 439.1C882.744 444.428 885.504 447.74 889.92 447.74C894.336 447.74 897.096 444.428 897.096 439.1C897.096 433.772 894.336 430.46 889.92 430.46ZM889.896 444.884C887.544 444.884 886.128 442.652 886.128 439.1C886.128 435.524 887.544 433.316 889.896 433.316C892.296 433.316 893.712 435.524 893.736 439.1C893.712 442.652 892.296 444.884 889.896 444.884ZM920.147 435.02C918.203 435.02 916.955 436.052 915.947 437.588C915.419 435.956 914.099 435.02 912.227 435.02C910.379 435.02 909.179 435.956 908.243 437.324V435.26H905.027V447.5H908.243V439.724C909.107 438.5 909.875 437.924 910.931 437.924C912.179 437.924 912.947 438.74 912.947 440.156V447.5H916.163V439.676C917.051 438.572 917.771 437.924 918.875 437.924C920.099 437.924 920.867 438.74 920.867 440.156V447.5H924.083V439.196C924.083 436.604 922.571 435.02 920.147 435.02ZM928.979 433.316C930.083 433.316 930.947 432.452 930.947 431.348C930.947 430.244 930.083 429.428 928.979 429.428C927.851 429.428 927.011 430.244 927.011 431.348C927.011 432.452 927.851 433.316 928.979 433.316ZM927.371 447.5H930.563V435.26H927.371V447.5ZM941.13 435.02C939.402 435.02 938.178 435.908 937.17 437.252V435.26H933.954V447.5H937.17V439.652C938.058 438.596 938.97 437.924 940.074 437.924C941.202 437.924 942.114 438.572 942.114 440.06V447.5H945.306V439.34C945.306 436.532 943.458 435.02 941.13 435.02Z" fill="white"/>
<rect x="0.5" y="0.5" width="1052" height="502" rx="15.5" stroke="#414141"/>
</svg>
